<svg width="275" height="102" viewBox="0 0 275 102" fill="none" xmlns="http://www.w3.org/2000/svg">
<g filter="url(#filter0_d_471_2160)">
<rect x="6" y="4" width="263" height="90" rx="5" fill="white"/>
</g>
<path d="M6 9C6 6.23858 8.23858 4 11 4H81V94H11C8.23858 94 6 91.7614 6 89V9Z" fill="#D73A9B"/>
<path d="M99.47 24.754H96.292V33H94.374V24.754H91.196V23.06H99.47V24.754ZM104.193 27.288C103.623 27.288 103.115 27.4 102.667 27.624C102.219 27.8387 101.897 28.1513 101.701 28.562V33H99.8247V25.664H101.547V27.232C101.808 26.728 102.139 26.3313 102.541 26.042C102.942 25.7527 103.367 25.594 103.815 25.566C103.917 25.566 103.997 25.566 104.053 25.566C104.109 25.566 104.155 25.5707 104.193 25.58V27.288ZM104.694 30.83C104.694 30.354 104.824 29.9387 105.086 29.584C105.356 29.22 105.73 28.94 106.206 28.744C106.682 28.548 107.228 28.45 107.844 28.45C108.152 28.45 108.464 28.4733 108.782 28.52C109.099 28.5667 109.374 28.6413 109.608 28.744V28.352C109.608 27.8853 109.468 27.526 109.188 27.274C108.917 27.022 108.511 26.896 107.97 26.896C107.568 26.896 107.186 26.966 106.822 27.106C106.458 27.246 106.075 27.4513 105.674 27.722L105.072 26.49C105.557 26.1727 106.052 25.9347 106.556 25.776C107.069 25.6173 107.606 25.538 108.166 25.538C109.211 25.538 110.023 25.7993 110.602 26.322C111.19 26.8447 111.484 27.5913 111.484 28.562V30.9C111.484 31.096 111.516 31.236 111.582 31.32C111.656 31.404 111.773 31.4553 111.932 31.474V33C111.764 33.028 111.61 33.0513 111.47 33.07C111.339 33.0887 111.227 33.098 111.134 33.098C110.76 33.098 110.476 33.014 110.28 32.846C110.093 32.678 109.976 32.4727 109.93 32.23L109.888 31.852C109.57 32.2627 109.174 32.58 108.698 32.804C108.222 33.028 107.736 33.14 107.242 33.14C106.756 33.14 106.318 33.042 105.926 32.846C105.543 32.6407 105.24 32.3653 105.016 32.02C104.801 31.6653 104.694 31.2687 104.694 30.83ZM109.258 31.208C109.36 31.096 109.444 30.984 109.51 30.872C109.575 30.76 109.608 30.6573 109.608 30.564V29.822C109.384 29.7287 109.141 29.6587 108.88 29.612C108.618 29.556 108.371 29.528 108.138 29.528C107.652 29.528 107.251 29.6353 106.934 29.85C106.626 30.0553 106.472 30.3307 106.472 30.676C106.472 30.8627 106.523 31.04 106.626 31.208C106.728 31.376 106.878 31.5113 107.074 31.614C107.27 31.7167 107.503 31.768 107.774 31.768C108.054 31.768 108.329 31.7167 108.6 31.614C108.87 31.502 109.09 31.3667 109.258 31.208ZM120.055 33H118.179V28.884C118.179 28.296 118.076 27.8667 117.871 27.596C117.665 27.3253 117.381 27.19 117.017 27.19C116.765 27.19 116.508 27.2553 116.247 27.386C115.995 27.5167 115.766 27.6987 115.561 27.932C115.355 28.156 115.206 28.4173 115.113 28.716V33H113.237V25.664H114.931V27.022C115.117 26.7047 115.355 26.4387 115.645 26.224C115.934 26 116.265 25.832 116.639 25.72C117.021 25.5987 117.423 25.538 117.843 25.538C118.3 25.538 118.673 25.622 118.963 25.79C119.261 25.9487 119.485 26.168 119.635 26.448C119.793 26.7187 119.901 27.0267 119.957 27.372C120.022 27.7173 120.055 28.0673 120.055 28.422V33ZM124.388 33.14C123.763 33.14 123.165 33.0373 122.596 32.832C122.027 32.6267 121.537 32.3233 121.126 31.922L121.798 30.704C122.237 31.0587 122.666 31.32 123.086 31.488C123.515 31.656 123.926 31.74 124.318 31.74C124.682 31.74 124.971 31.6747 125.186 31.544C125.41 31.4133 125.522 31.2173 125.522 30.956C125.522 30.7787 125.461 30.6433 125.34 30.55C125.219 30.4473 125.041 30.3587 124.808 30.284C124.584 30.2093 124.309 30.1253 123.982 30.032C123.441 29.8547 122.988 29.682 122.624 29.514C122.26 29.346 121.985 29.136 121.798 28.884C121.621 28.6227 121.532 28.2913 121.532 27.89C121.532 27.4047 121.653 26.9893 121.896 26.644C122.148 26.2893 122.493 26.014 122.932 25.818C123.38 25.622 123.903 25.524 124.5 25.524C125.023 25.524 125.517 25.608 125.984 25.776C126.451 25.9347 126.875 26.196 127.258 26.56L126.502 27.75C126.129 27.4607 125.774 27.2507 125.438 27.12C125.102 26.98 124.761 26.91 124.416 26.91C124.22 26.91 124.033 26.9333 123.856 26.98C123.688 27.0267 123.548 27.106 123.436 27.218C123.333 27.3207 123.282 27.47 123.282 27.666C123.282 27.8433 123.329 27.9833 123.422 28.086C123.525 28.1793 123.674 28.2633 123.87 28.338C124.075 28.4127 124.323 28.4967 124.612 28.59C125.2 28.758 125.695 28.9307 126.096 29.108C126.507 29.2853 126.815 29.5047 127.02 29.766C127.225 30.018 127.328 30.368 127.328 30.816C127.328 31.544 127.062 32.1133 126.53 32.524C125.998 32.9347 125.284 33.14 124.388 33.14ZM133 33.14C132.431 33.14 131.927 33.014 131.488 32.762C131.059 32.5007 130.723 32.1507 130.48 31.712V35.982H128.604V25.664H130.242V26.924C130.522 26.4947 130.877 26.1587 131.306 25.916C131.735 25.664 132.225 25.538 132.776 25.538C133.271 25.538 133.723 25.636 134.134 25.832C134.554 26.028 134.918 26.3033 135.226 26.658C135.534 27.0033 135.772 27.4047 135.94 27.862C136.117 28.31 136.206 28.7953 136.206 29.318C136.206 30.0273 136.066 30.6713 135.786 31.25C135.515 31.8287 135.137 32.2907 134.652 32.636C134.176 32.972 133.625 33.14 133 33.14ZM132.37 31.544C132.659 31.544 132.921 31.4833 133.154 31.362C133.387 31.2407 133.588 31.0773 133.756 30.872C133.933 30.6573 134.064 30.4193 134.148 30.158C134.241 29.8873 134.288 29.6073 134.288 29.318C134.288 29.01 134.237 28.7253 134.134 28.464C134.041 28.2027 133.901 27.974 133.714 27.778C133.527 27.5727 133.308 27.414 133.056 27.302C132.813 27.19 132.547 27.134 132.258 27.134C132.081 27.134 131.899 27.1667 131.712 27.232C131.535 27.288 131.362 27.372 131.194 27.484C131.026 27.596 130.877 27.7267 130.746 27.876C130.625 28.0253 130.536 28.1887 130.48 28.366V30.088C130.592 30.3587 130.741 30.606 130.928 30.83C131.124 31.054 131.348 31.2313 131.6 31.362C131.852 31.4833 132.109 31.544 132.37 31.544ZM140.865 33.14C140.268 33.14 139.731 33.042 139.255 32.846C138.779 32.6407 138.373 32.3607 138.037 32.006C137.71 31.6513 137.458 31.2453 137.281 30.788C137.104 30.3307 137.015 29.85 137.015 29.346C137.015 28.8327 137.104 28.3473 137.281 27.89C137.458 27.4327 137.71 27.0267 138.037 26.672C138.373 26.3173 138.779 26.042 139.255 25.846C139.731 25.6407 140.268 25.538 140.865 25.538C141.462 25.538 141.994 25.6407 142.461 25.846C142.937 26.042 143.343 26.3173 143.679 26.672C144.015 27.0267 144.267 27.4327 144.435 27.89C144.612 28.3473 144.701 28.8327 144.701 29.346C144.701 29.85 144.612 30.3307 144.435 30.788C144.267 31.2453 144.015 31.6513 143.679 32.006C143.352 32.3607 142.951 32.6407 142.475 32.846C141.999 33.042 141.462 33.14 140.865 33.14ZM138.947 29.346C138.947 29.7753 139.031 30.158 139.199 30.494C139.367 30.8207 139.596 31.0773 139.885 31.264C140.174 31.4507 140.501 31.544 140.865 31.544C141.22 31.544 141.542 31.4507 141.831 31.264C142.12 31.068 142.349 30.8067 142.517 30.48C142.694 30.144 142.783 29.7613 142.783 29.332C142.783 28.912 142.694 28.534 142.517 28.198C142.349 27.862 142.12 27.6007 141.831 27.414C141.542 27.2273 141.22 27.134 140.865 27.134C140.501 27.134 140.174 27.232 139.885 27.428C139.596 27.6147 139.367 27.876 139.199 28.212C139.031 28.5387 138.947 28.9167 138.947 29.346ZM150.335 27.288C149.766 27.288 149.257 27.4 148.809 27.624C148.361 27.8387 148.039 28.1513 147.843 28.562V33H145.967V25.664H147.689V27.232C147.951 26.728 148.282 26.3313 148.683 26.042C149.085 25.7527 149.509 25.594 149.957 25.566C150.06 25.566 150.139 25.566 150.195 25.566C150.251 25.566 150.298 25.5707 150.335 25.58V27.288ZM155.777 32.622C155.619 32.6873 155.427 32.762 155.203 32.846C154.979 32.93 154.737 32.9953 154.475 33.042C154.223 33.098 153.967 33.126 153.705 33.126C153.36 33.126 153.043 33.0653 152.753 32.944C152.464 32.8227 152.231 32.6313 152.053 32.37C151.885 32.0993 151.801 31.7493 151.801 31.32V27.106H150.835V25.664H151.801V23.284H153.677V25.664H155.217V27.106H153.677V30.69C153.687 30.942 153.757 31.124 153.887 31.236C154.018 31.348 154.181 31.404 154.377 31.404C154.573 31.404 154.765 31.3713 154.951 31.306C155.138 31.2407 155.287 31.1847 155.399 31.138L155.777 32.622ZM160.074 33.14C159.486 33.14 158.954 33.042 158.478 32.846C158.002 32.6407 157.596 32.3653 157.26 32.02C156.924 31.6653 156.663 31.264 156.476 30.816C156.299 30.3587 156.21 29.878 156.21 29.374C156.21 28.674 156.364 28.0347 156.672 27.456C156.99 26.8773 157.438 26.4153 158.016 26.07C158.604 25.7153 159.295 25.538 160.088 25.538C160.891 25.538 161.577 25.7153 162.146 26.07C162.716 26.4153 163.15 26.8773 163.448 27.456C163.756 28.0253 163.91 28.6413 163.91 29.304C163.91 29.416 163.906 29.5327 163.896 29.654C163.887 29.766 163.878 29.8593 163.868 29.934H158.198C158.236 30.3073 158.343 30.634 158.52 30.914C158.707 31.194 158.94 31.4087 159.22 31.558C159.51 31.698 159.818 31.768 160.144 31.768C160.518 31.768 160.868 31.6793 161.194 31.502C161.53 31.3153 161.759 31.0727 161.88 30.774L163.49 31.222C163.313 31.5953 163.056 31.9267 162.72 32.216C162.394 32.5053 162.006 32.734 161.558 32.902C161.11 33.0607 160.616 33.14 160.074 33.14ZM158.156 28.744H161.992C161.955 28.3707 161.848 28.0487 161.67 27.778C161.502 27.498 161.278 27.2833 160.998 27.134C160.718 26.9753 160.406 26.896 160.06 26.896C159.724 26.896 159.416 26.9753 159.136 27.134C158.866 27.2833 158.642 27.498 158.464 27.778C158.296 28.0487 158.194 28.3707 158.156 28.744Z" fill="black"/>
<path d="M98.212 57.668H95.38V65H94.024V57.668H91.18V56.48H98.212V57.668ZM97.5938 63.164C97.5938 62.764 97.7058 62.416 97.9298 62.12C98.1618 61.816 98.4778 61.584 98.8778 61.424C99.2778 61.256 99.7418 61.172 100.27 61.172C100.55 61.172 100.834 61.192 101.122 61.232C101.418 61.272 101.678 61.336 101.902 61.424V61.028C101.902 60.588 101.77 60.244 101.506 59.996C101.242 59.748 100.862 59.624 100.366 59.624C100.014 59.624 99.6818 59.688 99.3698 59.816C99.0578 59.936 98.7258 60.108 98.3738 60.332L97.9298 59.444C98.3458 59.164 98.7618 58.956 99.1778 58.82C99.6018 58.684 100.046 58.616 100.51 58.616C101.35 58.616 102.01 58.84 102.49 59.288C102.978 59.728 103.222 60.356 103.222 61.172V63.512C103.222 63.664 103.246 63.772 103.294 63.836C103.35 63.9 103.442 63.936 103.57 63.944V65C103.45 65.024 103.342 65.04 103.246 65.048C103.15 65.056 103.07 65.06 103.006 65.06C102.726 65.06 102.514 64.992 102.37 64.856C102.226 64.72 102.142 64.56 102.118 64.376L102.082 64.016C101.81 64.368 101.462 64.64 101.038 64.832C100.614 65.024 100.186 65.12 99.7538 65.12C99.3378 65.12 98.9658 65.036 98.6378 64.868C98.3098 64.692 98.0538 64.456 97.8698 64.16C97.6858 63.864 97.5938 63.532 97.5938 63.164ZM101.59 63.548C101.686 63.444 101.762 63.34 101.818 63.236C101.874 63.132 101.902 63.04 101.902 62.96V62.24C101.678 62.152 101.442 62.088 101.194 62.048C100.946 62 100.702 61.976 100.462 61.976C99.9818 61.976 99.5898 62.072 99.2858 62.264C98.9898 62.456 98.8418 62.72 98.8418 63.056C98.8418 63.24 98.8898 63.416 98.9858 63.584C99.0898 63.752 99.2338 63.888 99.4178 63.992C99.6098 64.096 99.8458 64.148 100.126 64.148C100.414 64.148 100.69 64.092 100.954 63.98C101.218 63.868 101.43 63.724 101.59 63.548ZM105.567 58.724L107.055 60.872L107.163 61.076L107.271 60.872L108.747 58.724H110.175L107.919 61.868L110.199 65H108.771L107.271 62.864L107.163 62.672L107.055 62.864L105.555 65H104.127L106.407 61.88L104.151 58.724H105.567ZM111.093 65V58.724H112.413V65H111.093ZM111.093 57.692V56.24H112.413V57.692H111.093ZM116.231 65.12C115.703 65.12 115.203 65.036 114.731 64.868C114.259 64.692 113.855 64.432 113.519 64.088L114.011 63.2C114.371 63.52 114.731 63.752 115.091 63.896C115.459 64.04 115.823 64.112 116.183 64.112C116.551 64.112 116.851 64.044 117.083 63.908C117.315 63.764 117.431 63.556 117.431 63.284C117.431 63.084 117.371 62.936 117.251 62.84C117.131 62.744 116.955 62.66 116.723 62.588C116.499 62.516 116.227 62.436 115.907 62.348C115.459 62.212 115.083 62.072 114.779 61.928C114.475 61.776 114.247 61.592 114.095 61.376C113.943 61.16 113.867 60.884 113.867 60.548C113.867 60.14 113.971 59.792 114.179 59.504C114.387 59.216 114.675 58.996 115.043 58.844C115.419 58.692 115.851 58.616 116.339 58.616C116.795 58.616 117.215 58.688 117.599 58.832C117.991 58.968 118.335 59.184 118.631 59.48L118.067 60.356C117.787 60.1 117.499 59.912 117.203 59.792C116.915 59.672 116.603 59.612 116.267 59.612C116.075 59.612 115.891 59.636 115.715 59.684C115.539 59.724 115.391 59.804 115.271 59.924C115.159 60.036 115.103 60.196 115.103 60.404C115.103 60.572 115.151 60.708 115.247 60.812C115.343 60.916 115.487 61.004 115.679 61.076C115.871 61.148 116.107 61.228 116.387 61.316C116.875 61.46 117.291 61.604 117.635 61.748C117.979 61.884 118.243 62.064 118.427 62.288C118.619 62.504 118.715 62.804 118.715 63.188C118.715 63.796 118.487 64.272 118.031 64.616C117.583 64.952 116.983 65.12 116.231 65.12ZM119.978 66.164L120.266 64.928H119.834V63.464H121.022V64.928L120.602 66.164H119.978ZM128.999 64.676C128.887 64.732 128.747 64.792 128.579 64.856C128.411 64.92 128.219 64.976 128.003 65.024C127.795 65.072 127.579 65.096 127.355 65.096C127.083 65.096 126.831 65.048 126.599 64.952C126.367 64.856 126.179 64.704 126.035 64.496C125.899 64.28 125.831 64.004 125.831 63.668V59.744H125.003V58.724H125.831V56.66H127.151V58.724H128.519V59.744H127.151V63.248C127.167 63.464 127.235 63.624 127.355 63.728C127.483 63.832 127.639 63.884 127.823 63.884C128.007 63.884 128.183 63.852 128.351 63.788C128.519 63.724 128.643 63.672 128.723 63.632L128.999 64.676ZM133.441 59.864C132.929 59.872 132.473 59.988 132.073 60.212C131.681 60.436 131.401 60.752 131.233 61.16V65H129.913V58.724H131.137V60.128C131.353 59.696 131.637 59.352 131.989 59.096C132.341 58.832 132.713 58.688 133.105 58.664C133.185 58.664 133.249 58.664 133.297 58.664C133.353 58.664 133.401 58.668 133.441 58.676V59.864ZM133.934 63.164C133.934 62.764 134.046 62.416 134.27 62.12C134.502 61.816 134.818 61.584 135.218 61.424C135.618 61.256 136.082 61.172 136.61 61.172C136.89 61.172 137.174 61.192 137.462 61.232C137.758 61.272 138.018 61.336 138.242 61.424V61.028C138.242 60.588 138.11 60.244 137.846 59.996C137.582 59.748 137.202 59.624 136.706 59.624C136.354 59.624 136.022 59.688 135.71 59.816C135.398 59.936 135.066 60.108 134.714 60.332L134.27 59.444C134.686 59.164 135.102 58.956 135.518 58.82C135.942 58.684 136.386 58.616 136.85 58.616C137.69 58.616 138.35 58.84 138.83 59.288C139.318 59.728 139.562 60.356 139.562 61.172V63.512C139.562 63.664 139.586 63.772 139.634 63.836C139.69 63.9 139.782 63.936 139.91 63.944V65C139.79 65.024 139.682 65.04 139.586 65.048C139.49 65.056 139.41 65.06 139.346 65.06C139.066 65.06 138.854 64.992 138.71 64.856C138.566 64.72 138.482 64.56 138.458 64.376L138.422 64.016C138.15 64.368 137.802 64.64 137.378 64.832C136.954 65.024 136.526 65.12 136.094 65.12C135.678 65.12 135.306 65.036 134.978 64.868C134.65 64.692 134.394 64.456 134.21 64.16C134.026 63.864 133.934 63.532 133.934 63.164ZM137.93 63.548C138.026 63.444 138.102 63.34 138.158 63.236C138.214 63.132 138.242 63.04 138.242 62.96V62.24C138.018 62.152 137.782 62.088 137.534 62.048C137.286 62 137.042 61.976 136.802 61.976C136.322 61.976 135.93 62.072 135.626 62.264C135.33 62.456 135.182 62.72 135.182 63.056C135.182 63.24 135.23 63.416 135.326 63.584C135.43 63.752 135.574 63.888 135.758 63.992C135.95 64.096 136.186 64.148 136.466 64.148C136.754 64.148 137.03 64.092 137.294 63.98C137.558 63.868 137.77 63.724 137.93 63.548ZM146.791 65H145.471V61.484C145.471 60.9 145.375 60.472 145.183 60.2C144.999 59.928 144.723 59.792 144.355 59.792C144.099 59.792 143.843 59.856 143.587 59.984C143.339 60.112 143.115 60.288 142.915 60.512C142.715 60.728 142.571 60.98 142.483 61.268V65H141.163V58.724H142.363V59.984C142.523 59.704 142.731 59.464 142.987 59.264C143.251 59.056 143.547 58.896 143.875 58.784C144.203 58.672 144.551 58.616 144.919 58.616C145.295 58.616 145.603 58.684 145.843 58.82C146.091 58.956 146.283 59.144 146.419 59.384C146.563 59.616 146.659 59.888 146.707 60.2C146.763 60.504 146.791 60.828 146.791 61.172V65ZM150.555 65.12C150.027 65.12 149.527 65.036 149.055 64.868C148.583 64.692 148.179 64.432 147.843 64.088L148.335 63.2C148.695 63.52 149.055 63.752 149.415 63.896C149.783 64.04 150.147 64.112 150.507 64.112C150.875 64.112 151.175 64.044 151.407 63.908C151.639 63.764 151.755 63.556 151.755 63.284C151.755 63.084 151.695 62.936 151.575 62.84C151.455 62.744 151.279 62.66 151.047 62.588C150.823 62.516 150.551 62.436 150.231 62.348C149.783 62.212 149.407 62.072 149.103 61.928C148.799 61.776 148.571 61.592 148.419 61.376C148.267 61.16 148.191 60.884 148.191 60.548C148.191 60.14 148.295 59.792 148.503 59.504C148.711 59.216 148.999 58.996 149.367 58.844C149.743 58.692 150.175 58.616 150.663 58.616C151.119 58.616 151.539 58.688 151.923 58.832C152.315 58.968 152.659 59.184 152.955 59.48L152.391 60.356C152.111 60.1 151.823 59.912 151.527 59.792C151.239 59.672 150.927 59.612 150.591 59.612C150.399 59.612 150.215 59.636 150.039 59.684C149.863 59.724 149.715 59.804 149.595 59.924C149.483 60.036 149.427 60.196 149.427 60.404C149.427 60.572 149.475 60.708 149.571 60.812C149.667 60.916 149.811 61.004 150.003 61.076C150.195 61.148 150.431 61.228 150.711 61.316C151.199 61.46 151.615 61.604 151.959 61.748C152.303 61.884 152.567 62.064 152.751 62.288C152.943 62.504 153.039 62.804 153.039 63.188C153.039 63.796 152.811 64.272 152.355 64.616C151.907 64.952 151.307 65.12 150.555 65.12ZM157.782 65.12C157.278 65.12 156.834 65 156.45 64.76C156.066 64.52 155.762 64.208 155.538 63.824V67.556H154.218V58.724H155.382V59.852C155.622 59.476 155.934 59.176 156.318 58.952C156.702 58.728 157.13 58.616 157.602 58.616C158.034 58.616 158.43 58.704 158.79 58.88C159.15 59.048 159.462 59.284 159.726 59.588C159.99 59.892 160.194 60.24 160.338 60.632C160.49 61.016 160.566 61.424 160.566 61.856C160.566 62.456 160.446 63.004 160.206 63.5C159.974 63.996 159.646 64.392 159.222 64.688C158.806 64.976 158.326 65.12 157.782 65.12ZM157.35 63.992C157.63 63.992 157.882 63.932 158.106 63.812C158.338 63.692 158.534 63.532 158.694 63.332C158.862 63.132 158.99 62.904 159.078 62.648C159.166 62.392 159.21 62.128 159.21 61.856C159.21 61.568 159.162 61.296 159.066 61.04C158.97 60.784 158.83 60.56 158.646 60.368C158.47 60.176 158.262 60.024 158.022 59.912C157.79 59.8 157.534 59.744 157.254 59.744C157.086 59.744 156.91 59.776 156.726 59.84C156.542 59.904 156.37 59.992 156.21 60.104C156.05 60.216 155.91 60.348 155.79 60.5C155.67 60.652 155.586 60.812 155.538 60.98V62.624C155.65 62.88 155.798 63.112 155.982 63.32C156.166 63.52 156.378 63.684 156.618 63.812C156.858 63.932 157.102 63.992 157.35 63.992ZM164.573 65.12C164.077 65.12 163.633 65.036 163.241 64.868C162.849 64.692 162.509 64.452 162.221 64.148C161.941 63.844 161.725 63.5 161.573 63.116C161.421 62.724 161.345 62.308 161.345 61.868C161.345 61.428 161.421 61.012 161.573 60.62C161.725 60.228 161.941 59.884 162.221 59.588C162.509 59.284 162.849 59.048 163.241 58.88C163.641 58.704 164.085 58.616 164.573 58.616C165.061 58.616 165.501 58.704 165.893 58.88C166.293 59.048 166.633 59.284 166.913 59.588C167.201 59.884 167.421 60.228 167.573 60.62C167.725 61.012 167.801 61.428 167.801 61.868C167.801 62.308 167.725 62.724 167.573 63.116C167.421 63.5 167.201 63.844 166.913 64.148C166.633 64.452 166.293 64.692 165.893 64.868C165.501 65.036 165.061 65.12 164.573 65.12ZM162.701 61.88C162.701 62.28 162.785 62.64 162.953 62.96C163.121 63.28 163.345 63.532 163.625 63.716C163.905 63.9 164.221 63.992 164.573 63.992C164.917 63.992 165.229 63.9 165.509 63.716C165.797 63.524 166.025 63.268 166.193 62.948C166.361 62.62 166.445 62.26 166.445 61.868C166.445 61.468 166.361 61.108 166.193 60.788C166.025 60.468 165.797 60.216 165.509 60.032C165.229 59.84 164.917 59.744 164.573 59.744C164.221 59.744 163.905 59.84 163.625 60.032C163.345 60.224 163.121 60.48 162.953 60.8C162.785 61.112 162.701 61.472 162.701 61.88ZM172.5 59.864C171.988 59.872 171.532 59.988 171.132 60.212C170.74 60.436 170.46 60.752 170.292 61.16V65H168.972V58.724H170.196V60.128C170.412 59.696 170.696 59.352 171.048 59.096C171.4 58.832 171.772 58.688 172.164 58.664C172.244 58.664 172.308 58.664 172.356 58.664C172.412 58.664 172.46 58.668 172.5 58.676V59.864ZM176.952 64.676C176.84 64.732 176.7 64.792 176.532 64.856C176.364 64.92 176.172 64.976 175.956 65.024C175.748 65.072 175.532 65.096 175.308 65.096C175.036 65.096 174.784 65.048 174.552 64.952C174.32 64.856 174.132 64.704 173.988 64.496C173.852 64.28 173.784 64.004 173.784 63.668V59.744H172.956V58.724H173.784V56.66H175.104V58.724H176.472V59.744H175.104V63.248C175.12 63.464 175.188 63.624 175.308 63.728C175.436 63.832 175.592 63.884 175.776 63.884C175.96 63.884 176.136 63.852 176.304 63.788C176.472 63.724 176.596 63.672 176.676 63.632L176.952 64.676ZM180.628 65.12C180.14 65.12 179.696 65.036 179.296 64.868C178.904 64.692 178.564 64.456 178.276 64.16C177.988 63.856 177.764 63.512 177.604 63.128C177.452 62.736 177.376 62.32 177.376 61.88C177.376 61.288 177.512 60.748 177.784 60.26C178.056 59.764 178.436 59.368 178.924 59.072C179.412 58.768 179.984 58.616 180.64 58.616C181.296 58.616 181.86 58.768 182.332 59.072C182.812 59.368 183.184 59.76 183.448 60.248C183.712 60.736 183.844 61.26 183.844 61.82C183.844 61.916 183.84 62.008 183.832 62.096C183.824 62.176 183.816 62.244 183.808 62.3H178.78C178.804 62.668 178.904 62.992 179.08 63.272C179.264 63.544 179.496 63.76 179.776 63.92C180.056 64.072 180.356 64.148 180.676 64.148C181.028 64.148 181.36 64.06 181.672 63.884C181.992 63.708 182.208 63.476 182.32 63.188L183.448 63.512C183.312 63.816 183.104 64.092 182.824 64.34C182.552 64.58 182.228 64.772 181.852 64.916C181.476 65.052 181.068 65.12 180.628 65.12ZM178.744 61.424H182.536C182.512 61.064 182.408 60.748 182.224 60.476C182.048 60.196 181.82 59.98 181.54 59.828C181.268 59.668 180.964 59.588 180.628 59.588C180.3 59.588 179.996 59.668 179.716 59.828C179.444 59.98 179.22 60.196 179.044 60.476C178.868 60.748 178.768 61.064 178.744 61.424ZM191.45 65.12C190.946 65.12 190.502 65 190.118 64.76C189.734 64.52 189.43 64.208 189.206 63.824V67.556H187.886V58.724H189.05V59.852C189.29 59.476 189.602 59.176 189.986 58.952C190.37 58.728 190.798 58.616 191.27 58.616C191.702 58.616 192.098 58.704 192.458 58.88C192.818 59.048 193.13 59.284 193.394 59.588C193.658 59.892 193.862 60.24 194.006 60.632C194.158 61.016 194.234 61.424 194.234 61.856C194.234 62.456 194.114 63.004 193.874 63.5C193.642 63.996 193.314 64.392 192.89 64.688C192.474 64.976 191.994 65.12 191.45 65.12ZM191.018 63.992C191.298 63.992 191.55 63.932 191.774 63.812C192.006 63.692 192.202 63.532 192.362 63.332C192.53 63.132 192.658 62.904 192.746 62.648C192.834 62.392 192.878 62.128 192.878 61.856C192.878 61.568 192.83 61.296 192.734 61.04C192.638 60.784 192.498 60.56 192.314 60.368C192.138 60.176 191.93 60.024 191.69 59.912C191.458 59.8 191.202 59.744 190.922 59.744C190.754 59.744 190.578 59.776 190.394 59.84C190.21 59.904 190.038 59.992 189.878 60.104C189.718 60.216 189.578 60.348 189.458 60.5C189.338 60.652 189.254 60.812 189.206 60.98V62.624C189.318 62.88 189.466 63.112 189.65 63.32C189.834 63.52 190.046 63.684 190.286 63.812C190.526 63.932 190.77 63.992 191.018 63.992ZM195.361 62.564V58.724H196.681V62.3C196.681 62.86 196.781 63.284 196.981 63.572C197.189 63.852 197.489 63.992 197.881 63.992C198.129 63.992 198.369 63.94 198.601 63.836C198.841 63.732 199.057 63.58 199.249 63.38C199.449 63.172 199.609 62.924 199.729 62.636V58.724H201.049V63.512C201.049 63.664 201.077 63.772 201.133 63.836C201.189 63.9 201.281 63.936 201.409 63.944V65C201.273 65.024 201.161 65.04 201.073 65.048C200.985 65.056 200.901 65.06 200.821 65.06C200.581 65.06 200.381 64.996 200.221 64.868C200.061 64.732 199.969 64.56 199.945 64.352L199.921 63.728C199.641 64.184 199.277 64.532 198.829 64.772C198.381 65.004 197.889 65.12 197.353 65.12C196.697 65.12 196.201 64.904 195.865 64.472C195.529 64.04 195.361 63.404 195.361 62.564ZM198.649 57.824L197.785 57.56L198.469 56.24H199.729L198.649 57.824ZM206.117 65.12C205.637 65.12 205.201 65.008 204.809 64.784C204.425 64.552 204.121 64.244 203.897 63.86V65H202.733V56.24H204.053V59.912C204.301 59.512 204.609 59.196 204.977 58.964C205.353 58.732 205.793 58.616 206.297 58.616C206.713 58.616 207.093 58.704 207.437 58.88C207.781 59.056 208.073 59.296 208.313 59.6C208.561 59.904 208.749 60.252 208.877 60.644C209.013 61.036 209.081 61.452 209.081 61.892C209.081 62.332 209.005 62.748 208.853 63.14C208.709 63.532 208.501 63.876 208.229 64.172C207.957 64.468 207.641 64.7 207.281 64.868C206.929 65.036 206.541 65.12 206.117 65.12ZM205.769 63.992C206.057 63.992 206.321 63.936 206.561 63.824C206.801 63.704 207.009 63.548 207.185 63.356C207.361 63.164 207.493 62.94 207.581 62.684C207.677 62.428 207.725 62.164 207.725 61.892C207.725 61.516 207.645 61.164 207.485 60.836C207.333 60.508 207.117 60.244 206.837 60.044C206.557 59.844 206.233 59.744 205.865 59.744C205.601 59.744 205.353 59.808 205.121 59.936C204.889 60.056 204.681 60.22 204.497 60.428C204.321 60.628 204.173 60.852 204.053 61.1V62.756C204.101 62.94 204.185 63.108 204.305 63.26C204.425 63.404 204.565 63.532 204.725 63.644C204.885 63.748 205.057 63.832 205.241 63.896C205.425 63.96 205.601 63.992 205.769 63.992ZM210.281 56.24H211.601V63.188C211.601 63.508 211.649 63.712 211.745 63.8C211.841 63.888 211.961 63.932 212.105 63.932C212.265 63.932 212.413 63.916 212.549 63.884C212.693 63.852 212.817 63.812 212.921 63.764L213.113 64.808C212.921 64.888 212.693 64.956 212.429 65.012C212.165 65.068 211.929 65.096 211.721 65.096C211.273 65.096 210.921 64.972 210.665 64.724C210.409 64.468 210.281 64.116 210.281 63.668V56.24ZM213.878 65V58.724H215.198V65H213.878ZM213.878 57.692V56.24H215.198V57.692H213.878ZM219.628 65.12C219.14 65.12 218.696 65.036 218.296 64.868C217.904 64.692 217.564 64.452 217.276 64.148C216.988 63.844 216.764 63.496 216.604 63.104C216.452 62.712 216.376 62.296 216.376 61.856C216.376 61.264 216.508 60.724 216.772 60.236C217.044 59.748 217.42 59.356 217.9 59.06C218.388 58.764 218.964 58.616 219.628 58.616C220.268 58.616 220.824 58.76 221.296 59.048C221.776 59.328 222.128 59.704 222.352 60.176L221.068 60.584C220.924 60.32 220.72 60.116 220.456 59.972C220.2 59.82 219.916 59.744 219.604 59.744C219.252 59.744 218.932 59.836 218.644 60.02C218.364 60.196 218.14 60.444 217.972 60.764C217.812 61.076 217.732 61.44 217.732 61.856C217.732 62.256 217.816 62.62 217.984 62.948C218.152 63.268 218.376 63.524 218.656 63.716C218.944 63.9 219.264 63.992 219.616 63.992C219.832 63.992 220.04 63.956 220.24 63.884C220.448 63.804 220.628 63.7 220.78 63.572C220.932 63.436 221.04 63.288 221.104 63.128L222.4 63.512C222.264 63.824 222.06 64.1 221.788 64.34C221.524 64.58 221.208 64.772 220.84 64.916C220.48 65.052 220.076 65.12 219.628 65.12ZM226.249 65.12C225.753 65.12 225.309 65.036 224.917 64.868C224.525 64.692 224.185 64.452 223.897 64.148C223.617 63.844 223.401 63.5 223.249 63.116C223.097 62.724 223.021 62.308 223.021 61.868C223.021 61.428 223.097 61.012 223.249 60.62C223.401 60.228 223.617 59.884 223.897 59.588C224.185 59.284 224.525 59.048 224.917 58.88C225.317 58.704 225.761 58.616 226.249 58.616C226.737 58.616 227.177 58.704 227.569 58.88C227.969 59.048 228.309 59.284 228.589 59.588C228.877 59.884 229.097 60.228 229.249 60.62C229.401 61.012 229.477 61.428 229.477 61.868C229.477 62.308 229.401 62.724 229.249 63.116C229.097 63.5 228.877 63.844 228.589 64.148C228.309 64.452 227.969 64.692 227.569 64.868C227.177 65.036 226.737 65.12 226.249 65.12ZM224.377 61.88C224.377 62.28 224.461 62.64 224.629 62.96C224.797 63.28 225.021 63.532 225.301 63.716C225.581 63.9 225.897 63.992 226.249 63.992C226.593 63.992 226.905 63.9 227.185 63.716C227.473 63.524 227.701 63.268 227.869 62.948C228.037 62.62 228.121 62.26 228.121 61.868C228.121 61.468 228.037 61.108 227.869 60.788C227.701 60.468 227.473 60.216 227.185 60.032C226.905 59.84 226.593 59.744 226.249 59.744C225.897 59.744 225.581 59.84 225.301 60.032C225.021 60.224 224.797 60.48 224.629 60.8C224.461 61.112 224.377 61.472 224.377 61.88ZM230.544 66.164L230.832 64.928H230.4V63.464H231.588V64.928L231.168 66.164H230.544ZM91.336 77.164C91.336 76.764 91.448 76.416 91.672 76.12C91.904 75.816 92.22 75.584 92.62 75.424C93.02 75.256 93.484 75.172 94.012 75.172C94.292 75.172 94.576 75.192 94.864 75.232C95.16 75.272 95.42 75.336 95.644 75.424V75.028C95.644 74.588 95.512 74.244 95.248 73.996C94.984 73.748 94.604 73.624 94.108 73.624C93.756 73.624 93.424 73.688 93.112 73.816C92.8 73.936 92.468 74.108 92.116 74.332L91.672 73.444C92.088 73.164 92.504 72.956 92.92 72.82C93.344 72.684 93.788 72.616 94.252 72.616C95.092 72.616 95.752 72.84 96.232 73.288C96.72 73.728 96.964 74.356 96.964 75.172V77.512C96.964 77.664 96.988 77.772 97.036 77.836C97.092 77.9 97.184 77.936 97.312 77.944V79C97.192 79.024 97.084 79.04 96.988 79.048C96.892 79.056 96.812 79.06 96.748 79.06C96.468 79.06 96.256 78.992 96.112 78.856C95.968 78.72 95.884 78.56 95.86 78.376L95.824 78.016C95.552 78.368 95.204 78.64 94.78 78.832C94.356 79.024 93.928 79.12 93.496 79.12C93.08 79.12 92.708 79.036 92.38 78.868C92.052 78.692 91.796 78.456 91.612 78.16C91.428 77.864 91.336 77.532 91.336 77.164ZM95.332 77.548C95.428 77.444 95.504 77.34 95.56 77.236C95.616 77.132 95.644 77.04 95.644 76.96V76.24C95.42 76.152 95.184 76.088 94.936 76.048C94.688 76 94.444 75.976 94.204 75.976C93.724 75.976 93.332 76.072 93.028 76.264C92.732 76.456 92.584 76.72 92.584 77.056C92.584 77.24 92.632 77.416 92.728 77.584C92.832 77.752 92.976 77.888 93.16 77.992C93.352 78.096 93.588 78.148 93.868 78.148C94.156 78.148 94.432 78.092 94.696 77.98C94.96 77.868 95.172 77.724 95.332 77.548ZM98.5774 70.24H99.8974V77.188C99.8974 77.508 99.9454 77.712 100.041 77.8C100.137 77.888 100.257 77.932 100.401 77.932C100.561 77.932 100.709 77.916 100.845 77.884C100.989 77.852 101.113 77.812 101.217 77.764L101.409 78.808C101.217 78.888 100.989 78.956 100.725 79.012C100.461 79.068 100.225 79.096 100.017 79.096C99.5694 79.096 99.2174 78.972 98.9614 78.724C98.7054 78.468 98.5774 78.116 98.5774 77.668V70.24ZM104.563 79.12C104.155 79.12 103.779 79.036 103.435 78.868C103.099 78.692 102.807 78.456 102.559 78.16C102.311 77.856 102.119 77.508 101.983 77.116C101.855 76.716 101.791 76.296 101.791 75.856C101.791 75.408 101.863 74.988 102.007 74.596C102.159 74.204 102.367 73.86 102.631 73.564C102.903 73.268 103.219 73.036 103.579 72.868C103.939 72.7 104.327 72.616 104.743 72.616C105.223 72.616 105.655 72.732 106.039 72.964C106.431 73.196 106.739 73.496 106.963 73.864V72.724H108.127V81.556H106.807V77.824C106.279 78.688 105.531 79.12 104.563 79.12ZM105.043 77.992C105.307 77.992 105.547 77.94 105.763 77.836C105.987 77.732 106.183 77.592 106.351 77.416C106.527 77.232 106.679 77.024 106.807 76.792V75.136C106.767 74.944 106.687 74.768 106.567 74.608C106.455 74.44 106.315 74.292 106.147 74.164C105.979 74.028 105.799 73.924 105.607 73.852C105.415 73.78 105.227 73.744 105.043 73.744C104.763 73.744 104.507 73.804 104.275 73.924C104.043 74.044 103.839 74.208 103.663 74.416C103.495 74.616 103.363 74.844 103.267 75.1C103.179 75.356 103.135 75.62 103.135 75.892C103.135 76.276 103.215 76.628 103.375 76.948C103.543 77.26 103.767 77.512 104.047 77.704C104.335 77.896 104.667 77.992 105.043 77.992ZM109.65 76.564V72.724H110.97V76.3C110.97 76.86 111.07 77.284 111.27 77.572C111.478 77.852 111.778 77.992 112.17 77.992C112.418 77.992 112.658 77.94 112.89 77.836C113.13 77.732 113.346 77.58 113.538 77.38C113.738 77.172 113.898 76.924 114.018 76.636V72.724H115.338V77.512C115.338 77.664 115.366 77.772 115.422 77.836C115.478 77.9 115.57 77.936 115.698 77.944V79C115.562 79.024 115.45 79.04 115.362 79.048C115.274 79.056 115.19 79.06 115.11 79.06C114.87 79.06 114.67 78.996 114.51 78.868C114.35 78.732 114.258 78.56 114.234 78.352L114.21 77.728C113.93 78.184 113.566 78.532 113.118 78.772C112.67 79.004 112.178 79.12 111.642 79.12C110.986 79.12 110.49 78.904 110.154 78.472C109.818 78.04 109.65 77.404 109.65 76.564ZM117.022 79V72.724H118.342V79H117.022ZM117.022 71.692V70.24H118.342V71.692H117.022ZM119.941 70.24H121.261V77.188C121.261 77.508 121.309 77.712 121.405 77.8C121.501 77.888 121.621 77.932 121.765 77.932C121.925 77.932 122.073 77.916 122.209 77.884C122.353 77.852 122.477 77.812 122.581 77.764L122.773 78.808C122.581 78.888 122.353 78.956 122.089 79.012C121.825 79.068 121.589 79.096 121.381 79.096C120.933 79.096 120.581 78.972 120.325 78.724C120.069 78.468 119.941 78.116 119.941 77.668V70.24ZM126.382 79.12C125.894 79.12 125.45 79.036 125.05 78.868C124.658 78.692 124.318 78.456 124.03 78.16C123.742 77.856 123.518 77.512 123.358 77.128C123.206 76.736 123.13 76.32 123.13 75.88C123.13 75.288 123.266 74.748 123.538 74.26C123.81 73.764 124.19 73.368 124.678 73.072C125.166 72.768 125.738 72.616 126.394 72.616C127.05 72.616 127.614 72.768 128.086 73.072C128.566 73.368 128.938 73.76 129.202 74.248C129.466 74.736 129.598 75.26 129.598 75.82C129.598 75.916 129.594 76.008 129.586 76.096C129.578 76.176 129.57 76.244 129.562 76.3H124.534C124.558 76.668 124.658 76.992 124.834 77.272C125.018 77.544 125.25 77.76 125.53 77.92C125.81 78.072 126.11 78.148 126.43 78.148C126.782 78.148 127.114 78.06 127.426 77.884C127.746 77.708 127.962 77.476 128.074 77.188L129.202 77.512C129.066 77.816 128.858 78.092 128.578 78.34C128.306 78.58 127.982 78.772 127.606 78.916C127.23 79.052 126.822 79.12 126.382 79.12ZM124.498 75.424H128.29C128.266 75.064 128.162 74.748 127.978 74.476C127.802 74.196 127.574 73.98 127.294 73.828C127.022 73.668 126.718 73.588 126.382 73.588C126.054 73.588 125.75 73.668 125.47 73.828C125.198 73.98 124.974 74.196 124.798 74.476C124.622 74.748 124.522 75.064 124.498 75.424ZM134.203 73.864C133.691 73.872 133.235 73.988 132.835 74.212C132.443 74.436 132.163 74.752 131.995 75.16V79H130.675V72.724H131.899V74.128C132.115 73.696 132.399 73.352 132.751 73.096C133.103 72.832 133.475 72.688 133.867 72.664C133.947 72.664 134.011 72.664 134.059 72.664C134.115 72.664 134.163 72.668 134.203 72.676V73.864ZM137.462 75.868C137.462 75.268 137.582 74.724 137.822 74.236C138.07 73.74 138.406 73.348 138.83 73.06C139.254 72.764 139.742 72.616 140.294 72.616C140.774 72.616 141.206 72.74 141.59 72.988C141.982 73.236 142.286 73.544 142.502 73.912V70.24H143.822V77.512C143.822 77.664 143.85 77.772 143.906 77.836C143.962 77.9 144.054 77.936 144.182 77.944V79C143.934 79.04 143.742 79.06 143.606 79.06C143.358 79.06 143.146 78.988 142.97 78.844C142.802 78.7 142.714 78.528 142.706 78.328L142.694 77.86C142.454 78.26 142.13 78.572 141.722 78.796C141.314 79.012 140.89 79.12 140.45 79.12C140.018 79.12 139.618 79.036 139.25 78.868C138.89 78.7 138.574 78.464 138.302 78.16C138.038 77.856 137.83 77.508 137.678 77.116C137.534 76.724 137.462 76.308 137.462 75.868ZM142.502 76.744V75.1C142.414 74.844 142.27 74.616 142.07 74.416C141.878 74.208 141.658 74.044 141.41 73.924C141.17 73.804 140.93 73.744 140.69 73.744C140.41 73.744 140.154 73.804 139.922 73.924C139.698 74.044 139.502 74.204 139.334 74.404C139.174 74.604 139.05 74.832 138.962 75.088C138.874 75.344 138.83 75.612 138.83 75.892C138.83 76.18 138.878 76.452 138.974 76.708C139.07 76.956 139.206 77.18 139.382 77.38C139.566 77.572 139.774 77.724 140.006 77.836C140.246 77.94 140.506 77.992 140.786 77.992C140.962 77.992 141.138 77.96 141.314 77.896C141.498 77.832 141.67 77.744 141.83 77.632C141.998 77.52 142.138 77.388 142.25 77.236C142.37 77.084 142.454 76.92 142.502 76.744ZM148.343 79.12C147.855 79.12 147.411 79.036 147.011 78.868C146.619 78.692 146.279 78.456 145.991 78.16C145.703 77.856 145.479 77.512 145.319 77.128C145.167 76.736 145.091 76.32 145.091 75.88C145.091 75.288 145.227 74.748 145.499 74.26C145.771 73.764 146.151 73.368 146.639 73.072C147.127 72.768 147.699 72.616 148.355 72.616C149.011 72.616 149.575 72.768 150.047 73.072C150.527 73.368 150.899 73.76 151.163 74.248C151.427 74.736 151.559 75.26 151.559 75.82C151.559 75.916 151.555 76.008 151.547 76.096C151.539 76.176 151.531 76.244 151.523 76.3H146.495C146.519 76.668 146.619 76.992 146.795 77.272C146.979 77.544 147.211 77.76 147.491 77.92C147.771 78.072 148.071 78.148 148.391 78.148C148.743 78.148 149.075 78.06 149.387 77.884C149.707 77.708 149.923 77.476 150.035 77.188L151.163 77.512C151.027 77.816 150.819 78.092 150.539 78.34C150.267 78.58 149.943 78.772 149.567 78.916C149.191 79.052 148.783 79.12 148.343 79.12ZM146.459 75.424H150.251C150.227 75.064 150.123 74.748 149.939 74.476C149.763 74.196 149.535 73.98 149.255 73.828C148.983 73.668 148.679 73.588 148.343 73.588C148.015 73.588 147.711 73.668 147.431 73.828C147.159 73.98 146.935 74.196 146.759 74.476C146.583 74.748 146.483 75.064 146.459 75.424ZM159.093 78.676C158.981 78.732 158.841 78.792 158.673 78.856C158.505 78.92 158.313 78.976 158.097 79.024C157.889 79.072 157.673 79.096 157.449 79.096C157.177 79.096 156.925 79.048 156.693 78.952C156.461 78.856 156.273 78.704 156.129 78.496C155.993 78.28 155.925 78.004 155.925 77.668V73.744H155.097V72.724H155.925V70.66H157.245V72.724H158.613V73.744H157.245V77.248C157.261 77.464 157.329 77.624 157.449 77.728C157.577 77.832 157.733 77.884 157.917 77.884C158.101 77.884 158.277 77.852 158.445 77.788C158.613 77.724 158.737 77.672 158.817 77.632L159.093 78.676ZM163.535 73.864C163.023 73.872 162.567 73.988 162.167 74.212C161.775 74.436 161.495 74.752 161.327 75.16V79H160.007V72.724H161.231V74.128C161.447 73.696 161.731 73.352 162.083 73.096C162.435 72.832 162.807 72.688 163.199 72.664C163.279 72.664 163.343 72.664 163.391 72.664C163.447 72.664 163.495 72.668 163.535 72.676V73.864ZM164.027 77.164C164.027 76.764 164.139 76.416 164.363 76.12C164.595 75.816 164.911 75.584 165.311 75.424C165.711 75.256 166.175 75.172 166.703 75.172C166.983 75.172 167.267 75.192 167.555 75.232C167.851 75.272 168.111 75.336 168.335 75.424V75.028C168.335 74.588 168.203 74.244 167.939 73.996C167.675 73.748 167.295 73.624 166.799 73.624C166.447 73.624 166.115 73.688 165.803 73.816C165.491 73.936 165.159 74.108 164.807 74.332L164.363 73.444C164.779 73.164 165.195 72.956 165.611 72.82C166.035 72.684 166.479 72.616 166.943 72.616C167.783 72.616 168.443 72.84 168.923 73.288C169.411 73.728 169.655 74.356 169.655 75.172V77.512C169.655 77.664 169.679 77.772 169.727 77.836C169.783 77.9 169.875 77.936 170.003 77.944V79C169.883 79.024 169.775 79.04 169.679 79.048C169.583 79.056 169.503 79.06 169.439 79.06C169.159 79.06 168.947 78.992 168.803 78.856C168.659 78.72 168.575 78.56 168.551 78.376L168.515 78.016C168.243 78.368 167.895 78.64 167.471 78.832C167.047 79.024 166.619 79.12 166.187 79.12C165.771 79.12 165.399 79.036 165.071 78.868C164.743 78.692 164.487 78.456 164.303 78.16C164.119 77.864 164.027 77.532 164.027 77.164ZM168.023 77.548C168.119 77.444 168.195 77.34 168.251 77.236C168.307 77.132 168.335 77.04 168.335 76.96V76.24C168.111 76.152 167.875 76.088 167.627 76.048C167.379 76 167.135 75.976 166.895 75.976C166.415 75.976 166.023 76.072 165.719 76.264C165.423 76.456 165.275 76.72 165.275 77.056C165.275 77.24 165.323 77.416 165.419 77.584C165.523 77.752 165.667 77.888 165.851 77.992C166.043 78.096 166.279 78.148 166.559 78.148C166.847 78.148 167.123 78.092 167.387 77.98C167.651 77.868 167.863 77.724 168.023 77.548ZM176.885 79H175.565V75.484C175.565 74.9 175.469 74.472 175.277 74.2C175.093 73.928 174.817 73.792 174.449 73.792C174.193 73.792 173.937 73.856 173.681 73.984C173.433 74.112 173.209 74.288 173.009 74.512C172.809 74.728 172.665 74.98 172.577 75.268V79H171.257V72.724H172.457V73.984C172.617 73.704 172.825 73.464 173.081 73.264C173.345 73.056 173.641 72.896 173.969 72.784C174.297 72.672 174.645 72.616 175.013 72.616C175.389 72.616 175.697 72.684 175.937 72.82C176.185 72.956 176.377 73.144 176.513 73.384C176.657 73.616 176.753 73.888 176.801 74.2C176.857 74.504 176.885 74.828 176.885 75.172V79ZM180.649 79.12C180.121 79.12 179.621 79.036 179.149 78.868C178.677 78.692 178.273 78.432 177.937 78.088L178.429 77.2C178.789 77.52 179.149 77.752 179.509 77.896C179.877 78.04 180.241 78.112 180.601 78.112C180.969 78.112 181.269 78.044 181.501 77.908C181.733 77.764 181.849 77.556 181.849 77.284C181.849 77.084 181.789 76.936 181.669 76.84C181.549 76.744 181.373 76.66 181.141 76.588C180.917 76.516 180.645 76.436 180.325 76.348C179.877 76.212 179.501 76.072 179.197 75.928C178.893 75.776 178.665 75.592 178.513 75.376C178.361 75.16 178.285 74.884 178.285 74.548C178.285 74.14 178.389 73.792 178.597 73.504C178.805 73.216 179.093 72.996 179.461 72.844C179.837 72.692 180.269 72.616 180.757 72.616C181.213 72.616 181.633 72.688 182.017 72.832C182.409 72.968 182.753 73.184 183.049 73.48L182.485 74.356C182.205 74.1 181.917 73.912 181.621 73.792C181.333 73.672 181.021 73.612 180.685 73.612C180.493 73.612 180.309 73.636 180.133 73.684C179.957 73.724 179.809 73.804 179.689 73.924C179.577 74.036 179.521 74.196 179.521 74.404C179.521 74.572 179.569 74.708 179.665 74.812C179.761 74.916 179.905 75.004 180.097 75.076C180.289 75.148 180.525 75.228 180.805 75.316C181.293 75.46 181.709 75.604 182.053 75.748C182.397 75.884 182.661 76.064 182.845 76.288C183.037 76.504 183.133 76.804 183.133 77.188C183.133 77.796 182.905 78.272 182.449 78.616C182.001 78.952 181.401 79.12 180.649 79.12ZM187.876 79.12C187.372 79.12 186.928 79 186.544 78.76C186.16 78.52 185.856 78.208 185.632 77.824V81.556H184.312V72.724H185.476V73.852C185.716 73.476 186.028 73.176 186.412 72.952C186.796 72.728 187.224 72.616 187.696 72.616C188.128 72.616 188.524 72.704 188.884 72.88C189.244 73.048 189.556 73.284 189.82 73.588C190.084 73.892 190.288 74.24 190.432 74.632C190.584 75.016 190.66 75.424 190.66 75.856C190.66 76.456 190.54 77.004 190.3 77.5C190.068 77.996 189.74 78.392 189.316 78.688C188.9 78.976 188.42 79.12 187.876 79.12ZM187.444 77.992C187.724 77.992 187.976 77.932 188.2 77.812C188.432 77.692 188.628 77.532 188.788 77.332C188.956 77.132 189.084 76.904 189.172 76.648C189.26 76.392 189.304 76.128 189.304 75.856C189.304 75.568 189.256 75.296 189.16 75.04C189.064 74.784 188.924 74.56 188.74 74.368C188.564 74.176 188.356 74.024 188.116 73.912C187.884 73.8 187.628 73.744 187.348 73.744C187.18 73.744 187.004 73.776 186.82 73.84C186.636 73.904 186.464 73.992 186.304 74.104C186.144 74.216 186.004 74.348 185.884 74.5C185.764 74.652 185.68 74.812 185.632 74.98V76.624C185.744 76.88 185.892 77.112 186.076 77.32C186.26 77.52 186.472 77.684 186.712 77.812C186.952 77.932 187.196 77.992 187.444 77.992ZM194.667 79.12C194.171 79.12 193.727 79.036 193.335 78.868C192.943 78.692 192.603 78.452 192.315 78.148C192.035 77.844 191.819 77.5 191.667 77.116C191.515 76.724 191.439 76.308 191.439 75.868C191.439 75.428 191.515 75.012 191.667 74.62C191.819 74.228 192.035 73.884 192.315 73.588C192.603 73.284 192.943 73.048 193.335 72.88C193.735 72.704 194.179 72.616 194.667 72.616C195.155 72.616 195.595 72.704 195.987 72.88C196.387 73.048 196.727 73.284 197.007 73.588C197.295 73.884 197.515 74.228 197.667 74.62C197.819 75.012 197.895 75.428 197.895 75.868C197.895 76.308 197.819 76.724 197.667 77.116C197.515 77.5 197.295 77.844 197.007 78.148C196.727 78.452 196.387 78.692 195.987 78.868C195.595 79.036 195.155 79.12 194.667 79.12ZM192.795 75.88C192.795 76.28 192.879 76.64 193.047 76.96C193.215 77.28 193.439 77.532 193.719 77.716C193.999 77.9 194.315 77.992 194.667 77.992C195.011 77.992 195.323 77.9 195.603 77.716C195.891 77.524 196.119 77.268 196.287 76.948C196.455 76.62 196.539 76.26 196.539 75.868C196.539 75.468 196.455 75.108 196.287 74.788C196.119 74.468 195.891 74.216 195.603 74.032C195.323 73.84 195.011 73.744 194.667 73.744C194.315 73.744 193.999 73.84 193.719 74.032C193.439 74.224 193.215 74.48 193.047 74.8C192.879 75.112 192.795 75.472 192.795 75.88ZM202.593 73.864C202.081 73.872 201.625 73.988 201.225 74.212C200.833 74.436 200.553 74.752 200.385 75.16V79H199.065V72.724H200.289V74.128C200.505 73.696 200.789 73.352 201.141 73.096C201.493 72.832 201.865 72.688 202.257 72.664C202.337 72.664 202.401 72.664 202.449 72.664C202.505 72.664 202.553 72.668 202.593 72.676V73.864ZM207.046 78.676C206.934 78.732 206.794 78.792 206.626 78.856C206.458 78.92 206.266 78.976 206.05 79.024C205.842 79.072 205.626 79.096 205.402 79.096C205.13 79.096 204.878 79.048 204.646 78.952C204.414 78.856 204.226 78.704 204.082 78.496C203.946 78.28 203.878 78.004 203.878 77.668V73.744H203.05V72.724H203.878V70.66H205.198V72.724H206.566V73.744H205.198V77.248C205.214 77.464 205.282 77.624 205.402 77.728C205.53 77.832 205.686 77.884 205.87 77.884C206.054 77.884 206.23 77.852 206.398 77.788C206.566 77.724 206.69 77.672 206.77 77.632L207.046 78.676ZM210.722 79.12C210.234 79.12 209.79 79.036 209.39 78.868C208.998 78.692 208.658 78.456 208.37 78.16C208.082 77.856 207.858 77.512 207.698 77.128C207.546 76.736 207.47 76.32 207.47 75.88C207.47 75.288 207.606 74.748 207.878 74.26C208.15 73.764 208.53 73.368 209.018 73.072C209.506 72.768 210.078 72.616 210.734 72.616C211.39 72.616 211.954 72.768 212.426 73.072C212.906 73.368 213.278 73.76 213.542 74.248C213.806 74.736 213.938 75.26 213.938 75.82C213.938 75.916 213.934 76.008 213.926 76.096C213.918 76.176 213.91 76.244 213.902 76.3H208.874C208.898 76.668 208.998 76.992 209.174 77.272C209.358 77.544 209.59 77.76 209.87 77.92C210.15 78.072 210.45 78.148 210.77 78.148C211.122 78.148 211.454 78.06 211.766 77.884C212.086 77.708 212.302 77.476 212.414 77.188L213.542 77.512C213.406 77.816 213.198 78.092 212.918 78.34C212.646 78.58 212.322 78.772 211.946 78.916C211.57 79.052 211.162 79.12 210.722 79.12ZM208.838 75.424H212.63C212.606 75.064 212.502 74.748 212.318 74.476C212.142 74.196 211.914 73.98 211.634 73.828C211.362 73.668 211.058 73.588 210.722 73.588C210.394 73.588 210.09 73.668 209.81 73.828C209.538 73.98 209.314 74.196 209.138 74.476C208.962 74.748 208.862 75.064 208.838 75.424ZM215.099 80.164L215.387 78.928H214.955V77.464H216.143V78.928L215.723 80.164H215.099ZM223.472 79.12C222.984 79.12 222.54 79.036 222.14 78.868C221.748 78.692 221.408 78.456 221.12 78.16C220.832 77.856 220.608 77.512 220.448 77.128C220.296 76.736 220.22 76.32 220.22 75.88C220.22 75.288 220.356 74.748 220.628 74.26C220.9 73.764 221.28 73.368 221.768 73.072C222.256 72.768 222.828 72.616 223.484 72.616C224.14 72.616 224.704 72.768 225.176 73.072C225.656 73.368 226.028 73.76 226.292 74.248C226.556 74.736 226.688 75.26 226.688 75.82C226.688 75.916 226.684 76.008 226.676 76.096C226.668 76.176 226.66 76.244 226.652 76.3H221.624C221.648 76.668 221.748 76.992 221.924 77.272C222.108 77.544 222.34 77.76 222.62 77.92C222.9 78.072 223.2 78.148 223.52 78.148C223.872 78.148 224.204 78.06 224.516 77.884C224.836 77.708 225.052 77.476 225.164 77.188L226.292 77.512C226.156 77.816 225.948 78.092 225.668 78.34C225.396 78.58 225.072 78.772 224.696 78.916C224.32 79.052 223.912 79.12 223.472 79.12ZM221.588 75.424H225.38C225.356 75.064 225.252 74.748 225.068 74.476C224.892 74.196 224.664 73.98 224.384 73.828C224.112 73.668 223.808 73.588 223.472 73.588C223.144 73.588 222.84 73.668 222.56 73.828C222.288 73.98 222.064 74.196 221.888 74.476C221.712 74.748 221.612 75.064 221.588 75.424ZM231.198 78.676C231.086 78.732 230.946 78.792 230.778 78.856C230.61 78.92 230.418 78.976 230.202 79.024C229.994 79.072 229.778 79.096 229.554 79.096C229.282 79.096 229.03 79.048 228.798 78.952C228.566 78.856 228.378 78.704 228.234 78.496C228.098 78.28 228.03 78.004 228.03 77.668V73.744H227.202V72.724H228.03V70.66H229.35V72.724H230.718V73.744H229.35V77.248C229.366 77.464 229.434 77.624 229.554 77.728C229.682 77.832 229.838 77.884 230.022 77.884C230.206 77.884 230.382 77.852 230.55 77.788C230.718 77.724 230.842 77.672 230.922 77.632L231.198 78.676ZM234.874 79.12C234.386 79.12 233.942 79.036 233.542 78.868C233.15 78.692 232.81 78.452 232.522 78.148C232.234 77.844 232.01 77.496 231.85 77.104C231.698 76.712 231.622 76.296 231.622 75.856C231.622 75.264 231.754 74.724 232.018 74.236C232.29 73.748 232.666 73.356 233.146 73.06C233.634 72.764 234.21 72.616 234.874 72.616C235.514 72.616 236.07 72.76 236.542 73.048C237.022 73.328 237.374 73.704 237.598 74.176L236.314 74.584C236.17 74.32 235.966 74.116 235.702 73.972C235.446 73.82 235.162 73.744 234.85 73.744C234.498 73.744 234.178 73.836 233.89 74.02C233.61 74.196 233.386 74.444 233.218 74.764C233.058 75.076 232.978 75.44 232.978 75.856C232.978 76.256 233.062 76.62 233.23 76.948C233.398 77.268 233.622 77.524 233.902 77.716C234.19 77.9 234.51 77.992 234.862 77.992C235.078 77.992 235.286 77.956 235.486 77.884C235.694 77.804 235.874 77.7 236.026 77.572C236.178 77.436 236.286 77.288 236.35 77.128L237.646 77.512C237.51 77.824 237.306 78.1 237.034 78.34C236.77 78.58 236.454 78.772 236.086 78.916C235.726 79.052 235.322 79.12 234.874 79.12ZM238.673 79V77.464H239.765V79H238.673Z" fill="black" fill-opacity="0.8"/>
<path d="M35.0183 63.5C34.5907 63.5 34.232 63.356 33.9423 63.068C33.6525 62.78 33.5081 62.424 33.5091 62V60.8524C33.5091 59.6119 32.9706 58.4499 32.4471 57.3254C32.4363 57.3022 32.4256 57.2789 32.415 57.2555C32.1383 56.6425 32 55.974 32 55.25V41C32 38.925 32.9684 37.406 34.9051 36.443C36.8418 35.48 39.8979 34.999 44.0732 35C48.3994 35 51.4931 35.4625 53.3544 36.3875C55.2157 37.3125 56.1463 38.85 56.1463 41V55.25C56.1463 55.975 56.008 56.644 55.7313 57.257C55.7213 57.2792 55.7112 57.3012 55.701 57.3232C55.1774 58.4496 54.6372 59.6131 54.6372 60.8552V62C54.6372 62.425 54.4923 62.7815 54.2026 63.0695C53.9128 63.3575 53.5546 63.501 53.128 63.5H51.6189C51.1913 63.5 50.8326 63.356 50.5429 63.068C50.2531 62.78 50.1087 62.424 50.1098 62C50.1098 61.1716 49.4382 60.5 48.6098 60.5H39.5366C38.7082 60.5 38.0366 61.1716 38.0366 62C38.0366 62.425 37.8917 62.7815 37.602 63.0695C37.3122 63.3575 36.954 63.501 36.5274 63.5H35.0183ZM44.1486 39.5H52.5998H35.6974H44.1486ZM50.1098 50H35.0183H53.128H50.1098ZM35.0183 44.75C35.0183 45.9926 36.0257 47 37.2683 47H50.878C52.1207 47 53.128 45.9926 53.128 44.75C53.128 43.5074 52.1207 42.5 50.878 42.5H37.2683C36.0257 42.5 35.0183 43.5074 35.0183 44.75ZM38.7912 56C39.42 56 39.9547 55.781 40.3954 55.343C40.8361 54.905 41.0559 54.374 41.0549 53.75C41.0549 53.125 40.8345 52.5935 40.3939 52.1555C39.9532 51.7175 39.419 51.499 38.7912 51.5C38.1623 51.5 37.6276 51.719 37.1869 52.157C36.7463 52.595 36.5264 53.126 36.5274 53.75C36.5274 54.375 36.7478 54.9065 37.1884 55.3445C37.6291 55.7825 38.1634 56.001 38.7912 56ZM49.3552 56C49.984 56 50.5187 55.781 50.9594 55.343C51.4001 54.905 51.6199 54.374 51.6189 53.75C51.6189 53.125 51.3986 52.5935 50.9579 52.1555C50.5172 51.7175 49.983 51.499 49.3552 51.5C48.7264 51.5 48.1916 51.719 47.751 52.157C47.3103 52.595 47.0905 53.126 47.0915 53.75C47.0915 54.375 47.3118 54.9065 47.7525 55.3445C48.1931 55.7825 48.7274 56.001 49.3552 56ZM35.6974 39.5H52.5998C52.2226 39.075 51.4111 38.7185 50.1656 38.4305C48.92 38.1425 46.9144 37.999 44.1486 38C41.4573 38 39.4889 38.1565 38.2433 38.4695C36.9978 38.7825 36.1491 39.126 35.6974 39.5ZM38.0366 57.5H50.1098C50.9398 57.5 51.6506 57.206 52.2422 56.618C52.8338 56.03 53.1291 55.324 53.128 54.5V50H35.0183V54.5C35.0183 55.325 35.3141 56.0315 35.9057 56.6195C36.4973 57.2075 37.2076 57.501 38.0366 57.5Z" fill="white"/>
<rect x="91" y="43" width="40" height="4" rx="2" fill="#D73A9B"/>
<rect x="6" y="4" width="263" height="90" rx="5" fill="white"/>
<path d="M6 9C6 6.23858 8.23858 4 11 4H81V94H11C8.23858 94 6 91.7614 6 89V9Z" fill="#70FA86"/>
<path d="M94.738 23.06H96.698L100.352 33H98.364L97.44 30.522H93.968L93.058 33H91.07L94.738 23.06ZM97.09 29.164L95.718 25.062L94.29 29.164H97.09ZM101.205 22.78H103.081V30.648C103.081 30.984 103.137 31.2127 103.249 31.334C103.361 31.446 103.515 31.502 103.711 31.502C103.861 31.502 104.015 31.4833 104.173 31.446C104.332 31.4087 104.472 31.362 104.593 31.306L104.845 32.734C104.593 32.8553 104.299 32.9487 103.963 33.014C103.627 33.0793 103.324 33.112 103.053 33.112C102.465 33.112 102.008 32.958 101.681 32.65C101.364 32.3327 101.205 31.8847 101.205 31.306V22.78ZM105.663 33V25.664H107.539V33H105.663ZM105.663 24.642V22.78H107.539V24.642H105.663ZM120.627 33H118.751V28.884C118.751 28.3053 118.648 27.8807 118.443 27.61C118.247 27.33 117.972 27.19 117.617 27.19C117.253 27.19 116.903 27.3347 116.567 27.624C116.24 27.904 116.007 28.2727 115.867 28.73V33H113.991V28.884C113.991 28.296 113.888 27.8667 113.683 27.596C113.487 27.3253 113.212 27.19 112.857 27.19C112.493 27.19 112.143 27.33 111.807 27.61C111.48 27.89 111.247 28.2587 111.107 28.716V33H109.231V25.664H110.925V27.022C111.205 26.546 111.578 26.182 112.045 25.93C112.512 25.6687 113.048 25.538 113.655 25.538C114.262 25.538 114.733 25.6873 115.069 25.986C115.414 26.2847 115.634 26.6533 115.727 27.092C116.026 26.588 116.404 26.2053 116.861 25.944C117.328 25.6733 117.85 25.538 118.429 25.538C118.886 25.538 119.255 25.622 119.535 25.79C119.824 25.9487 120.048 26.168 120.207 26.448C120.366 26.7187 120.473 27.0267 120.529 27.372C120.594 27.7173 120.627 28.0673 120.627 28.422V33ZM125.662 33.14C125.074 33.14 124.542 33.042 124.066 32.846C123.59 32.6407 123.184 32.3653 122.848 32.02C122.512 31.6653 122.251 31.264 122.064 30.816C121.887 30.3587 121.798 29.878 121.798 29.374C121.798 28.674 121.952 28.0347 122.26 27.456C122.578 26.8773 123.026 26.4153 123.604 26.07C124.192 25.7153 124.883 25.538 125.676 25.538C126.479 25.538 127.165 25.7153 127.734 26.07C128.304 26.4153 128.738 26.8773 129.036 27.456C129.344 28.0253 129.498 28.6413 129.498 29.304C129.498 29.416 129.494 29.5327 129.484 29.654C129.475 29.766 129.466 29.8593 129.456 29.934H123.786C123.824 30.3073 123.931 30.634 124.108 30.914C124.295 31.194 124.528 31.4087 124.808 31.558C125.098 31.698 125.406 31.768 125.732 31.768C126.106 31.768 126.456 31.6793 126.782 31.502C127.118 31.3153 127.347 31.0727 127.468 30.774L129.078 31.222C128.901 31.5953 128.644 31.9267 128.308 32.216C127.982 32.5053 127.594 32.734 127.146 32.902C126.698 33.0607 126.204 33.14 125.662 33.14ZM123.744 28.744H127.58C127.543 28.3707 127.436 28.0487 127.258 27.778C127.09 27.498 126.866 27.2833 126.586 27.134C126.306 26.9753 125.994 26.896 125.648 26.896C125.312 26.896 125.004 26.9753 124.724 27.134C124.454 27.2833 124.23 27.498 124.052 27.778C123.884 28.0487 123.782 28.3707 123.744 28.744ZM137.459 33H135.583V28.884C135.583 28.296 135.48 27.8667 135.275 27.596C135.07 27.3253 134.785 27.19 134.421 27.19C134.169 27.19 133.912 27.2553 133.651 27.386C133.399 27.5167 133.17 27.6987 132.965 27.932C132.76 28.156 132.61 28.4173 132.517 28.716V33H130.641V25.664H132.335V27.022C132.522 26.7047 132.76 26.4387 133.049 26.224C133.338 26 133.67 25.832 134.043 25.72C134.426 25.5987 134.827 25.538 135.247 25.538C135.704 25.538 136.078 25.622 136.367 25.79C136.666 25.9487 136.89 26.168 137.039 26.448C137.198 26.7187 137.305 27.0267 137.361 27.372C137.426 27.7173 137.459 28.0673 137.459 28.422V33ZM143.445 32.622C143.287 32.6873 143.095 32.762 142.871 32.846C142.647 32.93 142.405 32.9953 142.143 33.042C141.891 33.098 141.635 33.126 141.373 33.126C141.028 33.126 140.711 33.0653 140.421 32.944C140.132 32.8227 139.899 32.6313 139.721 32.37C139.553 32.0993 139.469 31.7493 139.469 31.32V27.106H138.503V25.664H139.469V23.284H141.345V25.664H142.885V27.106H141.345V30.69C141.355 30.942 141.425 31.124 141.555 31.236C141.686 31.348 141.849 31.404 142.045 31.404C142.241 31.404 142.433 31.3713 142.619 31.306C142.806 31.2407 142.955 31.1847 143.067 31.138L143.445 32.622ZM147.728 33.14C147.131 33.14 146.594 33.042 146.118 32.846C145.642 32.6407 145.236 32.3607 144.9 32.006C144.574 31.6513 144.322 31.2453 144.144 30.788C143.967 30.3307 143.878 29.85 143.878 29.346C143.878 28.8327 143.967 28.3473 144.144 27.89C144.322 27.4327 144.574 27.0267 144.9 26.672C145.236 26.3173 145.642 26.042 146.118 25.846C146.594 25.6407 147.131 25.538 147.728 25.538C148.326 25.538 148.858 25.6407 149.324 25.846C149.8 26.042 150.206 26.3173 150.542 26.672C150.878 27.0267 151.13 27.4327 151.298 27.89C151.476 28.3473 151.564 28.8327 151.564 29.346C151.564 29.85 151.476 30.3307 151.298 30.788C151.13 31.2453 150.878 31.6513 150.542 32.006C150.216 32.3607 149.814 32.6407 149.338 32.846C148.862 33.042 148.326 33.14 147.728 33.14ZM145.81 29.346C145.81 29.7753 145.894 30.158 146.062 30.494C146.23 30.8207 146.459 31.0773 146.748 31.264C147.038 31.4507 147.364 31.544 147.728 31.544C148.083 31.544 148.405 31.4507 148.694 31.264C148.984 31.068 149.212 30.8067 149.38 30.48C149.558 30.144 149.646 29.7613 149.646 29.332C149.646 28.912 149.558 28.534 149.38 28.198C149.212 27.862 148.984 27.6007 148.694 27.414C148.405 27.2273 148.083 27.134 147.728 27.134C147.364 27.134 147.038 27.232 146.748 27.428C146.459 27.6147 146.23 27.876 146.062 28.212C145.894 28.5387 145.81 28.9167 145.81 29.346ZM155.533 33.14C154.907 33.14 154.31 33.0373 153.741 32.832C153.171 32.6267 152.681 32.3233 152.271 31.922L152.943 30.704C153.381 31.0587 153.811 31.32 154.231 31.488C154.66 31.656 155.071 31.74 155.463 31.74C155.827 31.74 156.116 31.6747 156.331 31.544C156.555 31.4133 156.667 31.2173 156.667 30.956C156.667 30.7787 156.606 30.6433 156.485 30.55C156.363 30.4473 156.186 30.3587 155.953 30.284C155.729 30.2093 155.453 30.1253 155.127 30.032C154.585 29.8547 154.133 29.682 153.769 29.514C153.405 29.346 153.129 29.136 152.943 28.884C152.765 28.6227 152.677 28.2913 152.677 27.89C152.677 27.4047 152.798 26.9893 153.041 26.644C153.293 26.2893 153.638 26.014 154.077 25.818C154.525 25.622 155.047 25.524 155.645 25.524C156.167 25.524 156.662 25.608 157.129 25.776C157.595 25.9347 158.02 26.196 158.403 26.56L157.647 27.75C157.273 27.4607 156.919 27.2507 156.583 27.12C156.247 26.98 155.906 26.91 155.561 26.91C155.365 26.91 155.178 26.9333 155.001 26.98C154.833 27.0267 154.693 27.106 154.581 27.218C154.478 27.3207 154.427 27.47 154.427 27.666C154.427 27.8433 154.473 27.9833 154.567 28.086C154.669 28.1793 154.819 28.2633 155.015 28.338C155.22 28.4127 155.467 28.4967 155.757 28.59C156.345 28.758 156.839 28.9307 157.241 29.108C157.651 29.2853 157.959 29.5047 158.165 29.766C158.37 30.018 158.473 30.368 158.473 30.816C158.473 31.544 158.207 32.1133 157.675 32.524C157.143 32.9347 156.429 33.14 155.533 33.14Z" fill="black"/>
<path d="M98.212 57.668H95.38V65H94.024V57.668H91.18V56.48H98.212V57.668ZM97.5938 63.164C97.5938 62.764 97.7058 62.416 97.9298 62.12C98.1618 61.816 98.4778 61.584 98.8778 61.424C99.2778 61.256 99.7418 61.172 100.27 61.172C100.55 61.172 100.834 61.192 101.122 61.232C101.418 61.272 101.678 61.336 101.902 61.424V61.028C101.902 60.588 101.77 60.244 101.506 59.996C101.242 59.748 100.862 59.624 100.366 59.624C100.014 59.624 99.6818 59.688 99.3698 59.816C99.0578 59.936 98.7258 60.108 98.3738 60.332L97.9298 59.444C98.3458 59.164 98.7618 58.956 99.1778 58.82C99.6018 58.684 100.046 58.616 100.51 58.616C101.35 58.616 102.01 58.84 102.49 59.288C102.978 59.728 103.222 60.356 103.222 61.172V63.512C103.222 63.664 103.246 63.772 103.294 63.836C103.35 63.9 103.442 63.936 103.57 63.944V65C103.45 65.024 103.342 65.04 103.246 65.048C103.15 65.056 103.07 65.06 103.006 65.06C102.726 65.06 102.514 64.992 102.37 64.856C102.226 64.72 102.142 64.56 102.118 64.376L102.082 64.016C101.81 64.368 101.462 64.64 101.038 64.832C100.614 65.024 100.186 65.12 99.7538 65.12C99.3378 65.12 98.9658 65.036 98.6378 64.868C98.3098 64.692 98.0538 64.456 97.8698 64.16C97.6858 63.864 97.5938 63.532 97.5938 63.164ZM101.59 63.548C101.686 63.444 101.762 63.34 101.818 63.236C101.874 63.132 101.902 63.04 101.902 62.96V62.24C101.678 62.152 101.442 62.088 101.194 62.048C100.946 62 100.702 61.976 100.462 61.976C99.9818 61.976 99.5898 62.072 99.2858 62.264C98.9898 62.456 98.8418 62.72 98.8418 63.056C98.8418 63.24 98.8898 63.416 98.9858 63.584C99.0898 63.752 99.2338 63.888 99.4178 63.992C99.6098 64.096 99.8458 64.148 100.126 64.148C100.414 64.148 100.69 64.092 100.954 63.98C101.218 63.868 101.43 63.724 101.59 63.548ZM105.567 58.724L107.055 60.872L107.163 61.076L107.271 60.872L108.747 58.724H110.175L107.919 61.868L110.199 65H108.771L107.271 62.864L107.163 62.672L107.055 62.864L105.555 65H104.127L106.407 61.88L104.151 58.724H105.567ZM111.093 65V58.724H112.413V65H111.093ZM111.093 57.692V56.24H112.413V57.692H111.093ZM116.231 65.12C115.703 65.12 115.203 65.036 114.731 64.868C114.259 64.692 113.855 64.432 113.519 64.088L114.011 63.2C114.371 63.52 114.731 63.752 115.091 63.896C115.459 64.04 115.823 64.112 116.183 64.112C116.551 64.112 116.851 64.044 117.083 63.908C117.315 63.764 117.431 63.556 117.431 63.284C117.431 63.084 117.371 62.936 117.251 62.84C117.131 62.744 116.955 62.66 116.723 62.588C116.499 62.516 116.227 62.436 115.907 62.348C115.459 62.212 115.083 62.072 114.779 61.928C114.475 61.776 114.247 61.592 114.095 61.376C113.943 61.16 113.867 60.884 113.867 60.548C113.867 60.14 113.971 59.792 114.179 59.504C114.387 59.216 114.675 58.996 115.043 58.844C115.419 58.692 115.851 58.616 116.339 58.616C116.795 58.616 117.215 58.688 117.599 58.832C117.991 58.968 118.335 59.184 118.631 59.48L118.067 60.356C117.787 60.1 117.499 59.912 117.203 59.792C116.915 59.672 116.603 59.612 116.267 59.612C116.075 59.612 115.891 59.636 115.715 59.684C115.539 59.724 115.391 59.804 115.271 59.924C115.159 60.036 115.103 60.196 115.103 60.404C115.103 60.572 115.151 60.708 115.247 60.812C115.343 60.916 115.487 61.004 115.679 61.076C115.871 61.148 116.107 61.228 116.387 61.316C116.875 61.46 117.291 61.604 117.635 61.748C117.979 61.884 118.243 62.064 118.427 62.288C118.619 62.504 118.715 62.804 118.715 63.188C118.715 63.796 118.487 64.272 118.031 64.616C117.583 64.952 116.983 65.12 116.231 65.12ZM119.978 66.164L120.266 64.928H119.834V63.464H121.022V64.928L120.602 66.164H119.978ZM128.999 64.676C128.887 64.732 128.747 64.792 128.579 64.856C128.411 64.92 128.219 64.976 128.003 65.024C127.795 65.072 127.579 65.096 127.355 65.096C127.083 65.096 126.831 65.048 126.599 64.952C126.367 64.856 126.179 64.704 126.035 64.496C125.899 64.28 125.831 64.004 125.831 63.668V59.744H125.003V58.724H125.831V56.66H127.151V58.724H128.519V59.744H127.151V63.248C127.167 63.464 127.235 63.624 127.355 63.728C127.483 63.832 127.639 63.884 127.823 63.884C128.007 63.884 128.183 63.852 128.351 63.788C128.519 63.724 128.643 63.672 128.723 63.632L128.999 64.676ZM133.441 59.864C132.929 59.872 132.473 59.988 132.073 60.212C131.681 60.436 131.401 60.752 131.233 61.16V65H129.913V58.724H131.137V60.128C131.353 59.696 131.637 59.352 131.989 59.096C132.341 58.832 132.713 58.688 133.105 58.664C133.185 58.664 133.249 58.664 133.297 58.664C133.353 58.664 133.401 58.668 133.441 58.676V59.864ZM133.934 63.164C133.934 62.764 134.046 62.416 134.27 62.12C134.502 61.816 134.818 61.584 135.218 61.424C135.618 61.256 136.082 61.172 136.61 61.172C136.89 61.172 137.174 61.192 137.462 61.232C137.758 61.272 138.018 61.336 138.242 61.424V61.028C138.242 60.588 138.11 60.244 137.846 59.996C137.582 59.748 137.202 59.624 136.706 59.624C136.354 59.624 136.022 59.688 135.71 59.816C135.398 59.936 135.066 60.108 134.714 60.332L134.27 59.444C134.686 59.164 135.102 58.956 135.518 58.82C135.942 58.684 136.386 58.616 136.85 58.616C137.69 58.616 138.35 58.84 138.83 59.288C139.318 59.728 139.562 60.356 139.562 61.172V63.512C139.562 63.664 139.586 63.772 139.634 63.836C139.69 63.9 139.782 63.936 139.91 63.944V65C139.79 65.024 139.682 65.04 139.586 65.048C139.49 65.056 139.41 65.06 139.346 65.06C139.066 65.06 138.854 64.992 138.71 64.856C138.566 64.72 138.482 64.56 138.458 64.376L138.422 64.016C138.15 64.368 137.802 64.64 137.378 64.832C136.954 65.024 136.526 65.12 136.094 65.12C135.678 65.12 135.306 65.036 134.978 64.868C134.65 64.692 134.394 64.456 134.21 64.16C134.026 63.864 133.934 63.532 133.934 63.164ZM137.93 63.548C138.026 63.444 138.102 63.34 138.158 63.236C138.214 63.132 138.242 63.04 138.242 62.96V62.24C138.018 62.152 137.782 62.088 137.534 62.048C137.286 62 137.042 61.976 136.802 61.976C136.322 61.976 135.93 62.072 135.626 62.264C135.33 62.456 135.182 62.72 135.182 63.056C135.182 63.24 135.23 63.416 135.326 63.584C135.43 63.752 135.574 63.888 135.758 63.992C135.95 64.096 136.186 64.148 136.466 64.148C136.754 64.148 137.03 64.092 137.294 63.98C137.558 63.868 137.77 63.724 137.93 63.548ZM146.791 65H145.471V61.484C145.471 60.9 145.375 60.472 145.183 60.2C144.999 59.928 144.723 59.792 144.355 59.792C144.099 59.792 143.843 59.856 143.587 59.984C143.339 60.112 143.115 60.288 142.915 60.512C142.715 60.728 142.571 60.98 142.483 61.268V65H141.163V58.724H142.363V59.984C142.523 59.704 142.731 59.464 142.987 59.264C143.251 59.056 143.547 58.896 143.875 58.784C144.203 58.672 144.551 58.616 144.919 58.616C145.295 58.616 145.603 58.684 145.843 58.82C146.091 58.956 146.283 59.144 146.419 59.384C146.563 59.616 146.659 59.888 146.707 60.2C146.763 60.504 146.791 60.828 146.791 61.172V65ZM150.555 65.12C150.027 65.12 149.527 65.036 149.055 64.868C148.583 64.692 148.179 64.432 147.843 64.088L148.335 63.2C148.695 63.52 149.055 63.752 149.415 63.896C149.783 64.04 150.147 64.112 150.507 64.112C150.875 64.112 151.175 64.044 151.407 63.908C151.639 63.764 151.755 63.556 151.755 63.284C151.755 63.084 151.695 62.936 151.575 62.84C151.455 62.744 151.279 62.66 151.047 62.588C150.823 62.516 150.551 62.436 150.231 62.348C149.783 62.212 149.407 62.072 149.103 61.928C148.799 61.776 148.571 61.592 148.419 61.376C148.267 61.16 148.191 60.884 148.191 60.548C148.191 60.14 148.295 59.792 148.503 59.504C148.711 59.216 148.999 58.996 149.367 58.844C149.743 58.692 150.175 58.616 150.663 58.616C151.119 58.616 151.539 58.688 151.923 58.832C152.315 58.968 152.659 59.184 152.955 59.48L152.391 60.356C152.111 60.1 151.823 59.912 151.527 59.792C151.239 59.672 150.927 59.612 150.591 59.612C150.399 59.612 150.215 59.636 150.039 59.684C149.863 59.724 149.715 59.804 149.595 59.924C149.483 60.036 149.427 60.196 149.427 60.404C149.427 60.572 149.475 60.708 149.571 60.812C149.667 60.916 149.811 61.004 150.003 61.076C150.195 61.148 150.431 61.228 150.711 61.316C151.199 61.46 151.615 61.604 151.959 61.748C152.303 61.884 152.567 62.064 152.751 62.288C152.943 62.504 153.039 62.804 153.039 63.188C153.039 63.796 152.811 64.272 152.355 64.616C151.907 64.952 151.307 65.12 150.555 65.12ZM157.782 65.12C157.278 65.12 156.834 65 156.45 64.76C156.066 64.52 155.762 64.208 155.538 63.824V67.556H154.218V58.724H155.382V59.852C155.622 59.476 155.934 59.176 156.318 58.952C156.702 58.728 157.13 58.616 157.602 58.616C158.034 58.616 158.43 58.704 158.79 58.88C159.15 59.048 159.462 59.284 159.726 59.588C159.99 59.892 160.194 60.24 160.338 60.632C160.49 61.016 160.566 61.424 160.566 61.856C160.566 62.456 160.446 63.004 160.206 63.5C159.974 63.996 159.646 64.392 159.222 64.688C158.806 64.976 158.326 65.12 157.782 65.12ZM157.35 63.992C157.63 63.992 157.882 63.932 158.106 63.812C158.338 63.692 158.534 63.532 158.694 63.332C158.862 63.132 158.99 62.904 159.078 62.648C159.166 62.392 159.21 62.128 159.21 61.856C159.21 61.568 159.162 61.296 159.066 61.04C158.97 60.784 158.83 60.56 158.646 60.368C158.47 60.176 158.262 60.024 158.022 59.912C157.79 59.8 157.534 59.744 157.254 59.744C157.086 59.744 156.91 59.776 156.726 59.84C156.542 59.904 156.37 59.992 156.21 60.104C156.05 60.216 155.91 60.348 155.79 60.5C155.67 60.652 155.586 60.812 155.538 60.98V62.624C155.65 62.88 155.798 63.112 155.982 63.32C156.166 63.52 156.378 63.684 156.618 63.812C156.858 63.932 157.102 63.992 157.35 63.992ZM164.573 65.12C164.077 65.12 163.633 65.036 163.241 64.868C162.849 64.692 162.509 64.452 162.221 64.148C161.941 63.844 161.725 63.5 161.573 63.116C161.421 62.724 161.345 62.308 161.345 61.868C161.345 61.428 161.421 61.012 161.573 60.62C161.725 60.228 161.941 59.884 162.221 59.588C162.509 59.284 162.849 59.048 163.241 58.88C163.641 58.704 164.085 58.616 164.573 58.616C165.061 58.616 165.501 58.704 165.893 58.88C166.293 59.048 166.633 59.284 166.913 59.588C167.201 59.884 167.421 60.228 167.573 60.62C167.725 61.012 167.801 61.428 167.801 61.868C167.801 62.308 167.725 62.724 167.573 63.116C167.421 63.5 167.201 63.844 166.913 64.148C166.633 64.452 166.293 64.692 165.893 64.868C165.501 65.036 165.061 65.12 164.573 65.12ZM162.701 61.88C162.701 62.28 162.785 62.64 162.953 62.96C163.121 63.28 163.345 63.532 163.625 63.716C163.905 63.9 164.221 63.992 164.573 63.992C164.917 63.992 165.229 63.9 165.509 63.716C165.797 63.524 166.025 63.268 166.193 62.948C166.361 62.62 166.445 62.26 166.445 61.868C166.445 61.468 166.361 61.108 166.193 60.788C166.025 60.468 165.797 60.216 165.509 60.032C165.229 59.84 164.917 59.744 164.573 59.744C164.221 59.744 163.905 59.84 163.625 60.032C163.345 60.224 163.121 60.48 162.953 60.8C162.785 61.112 162.701 61.472 162.701 61.88ZM172.5 59.864C171.988 59.872 171.532 59.988 171.132 60.212C170.74 60.436 170.46 60.752 170.292 61.16V65H168.972V58.724H170.196V60.128C170.412 59.696 170.696 59.352 171.048 59.096C171.4 58.832 171.772 58.688 172.164 58.664C172.244 58.664 172.308 58.664 172.356 58.664C172.412 58.664 172.46 58.668 172.5 58.676V59.864ZM176.952 64.676C176.84 64.732 176.7 64.792 176.532 64.856C176.364 64.92 176.172 64.976 175.956 65.024C175.748 65.072 175.532 65.096 175.308 65.096C175.036 65.096 174.784 65.048 174.552 64.952C174.32 64.856 174.132 64.704 173.988 64.496C173.852 64.28 173.784 64.004 173.784 63.668V59.744H172.956V58.724H173.784V56.66H175.104V58.724H176.472V59.744H175.104V63.248C175.12 63.464 175.188 63.624 175.308 63.728C175.436 63.832 175.592 63.884 175.776 63.884C175.96 63.884 176.136 63.852 176.304 63.788C176.472 63.724 176.596 63.672 176.676 63.632L176.952 64.676ZM180.628 65.12C180.14 65.12 179.696 65.036 179.296 64.868C178.904 64.692 178.564 64.456 178.276 64.16C177.988 63.856 177.764 63.512 177.604 63.128C177.452 62.736 177.376 62.32 177.376 61.88C177.376 61.288 177.512 60.748 177.784 60.26C178.056 59.764 178.436 59.368 178.924 59.072C179.412 58.768 179.984 58.616 180.64 58.616C181.296 58.616 181.86 58.768 182.332 59.072C182.812 59.368 183.184 59.76 183.448 60.248C183.712 60.736 183.844 61.26 183.844 61.82C183.844 61.916 183.84 62.008 183.832 62.096C183.824 62.176 183.816 62.244 183.808 62.3H178.78C178.804 62.668 178.904 62.992 179.08 63.272C179.264 63.544 179.496 63.76 179.776 63.92C180.056 64.072 180.356 64.148 180.676 64.148C181.028 64.148 181.36 64.06 181.672 63.884C181.992 63.708 182.208 63.476 182.32 63.188L183.448 63.512C183.312 63.816 183.104 64.092 182.824 64.34C182.552 64.58 182.228 64.772 181.852 64.916C181.476 65.052 181.068 65.12 180.628 65.12ZM178.744 61.424H182.536C182.512 61.064 182.408 60.748 182.224 60.476C182.048 60.196 181.82 59.98 181.54 59.828C181.268 59.668 180.964 59.588 180.628 59.588C180.3 59.588 179.996 59.668 179.716 59.828C179.444 59.98 179.22 60.196 179.044 60.476C178.868 60.748 178.768 61.064 178.744 61.424ZM191.45 65.12C190.946 65.12 190.502 65 190.118 64.76C189.734 64.52 189.43 64.208 189.206 63.824V67.556H187.886V58.724H189.05V59.852C189.29 59.476 189.602 59.176 189.986 58.952C190.37 58.728 190.798 58.616 191.27 58.616C191.702 58.616 192.098 58.704 192.458 58.88C192.818 59.048 193.13 59.284 193.394 59.588C193.658 59.892 193.862 60.24 194.006 60.632C194.158 61.016 194.234 61.424 194.234 61.856C194.234 62.456 194.114 63.004 193.874 63.5C193.642 63.996 193.314 64.392 192.89 64.688C192.474 64.976 191.994 65.12 191.45 65.12ZM191.018 63.992C191.298 63.992 191.55 63.932 191.774 63.812C192.006 63.692 192.202 63.532 192.362 63.332C192.53 63.132 192.658 62.904 192.746 62.648C192.834 62.392 192.878 62.128 192.878 61.856C192.878 61.568 192.83 61.296 192.734 61.04C192.638 60.784 192.498 60.56 192.314 60.368C192.138 60.176 191.93 60.024 191.69 59.912C191.458 59.8 191.202 59.744 190.922 59.744C190.754 59.744 190.578 59.776 190.394 59.84C190.21 59.904 190.038 59.992 189.878 60.104C189.718 60.216 189.578 60.348 189.458 60.5C189.338 60.652 189.254 60.812 189.206 60.98V62.624C189.318 62.88 189.466 63.112 189.65 63.32C189.834 63.52 190.046 63.684 190.286 63.812C190.526 63.932 190.77 63.992 191.018 63.992ZM195.361 62.564V58.724H196.681V62.3C196.681 62.86 196.781 63.284 196.981 63.572C197.189 63.852 197.489 63.992 197.881 63.992C198.129 63.992 198.369 63.94 198.601 63.836C198.841 63.732 199.057 63.58 199.249 63.38C199.449 63.172 199.609 62.924 199.729 62.636V58.724H201.049V63.512C201.049 63.664 201.077 63.772 201.133 63.836C201.189 63.9 201.281 63.936 201.409 63.944V65C201.273 65.024 201.161 65.04 201.073 65.048C200.985 65.056 200.901 65.06 200.821 65.06C200.581 65.06 200.381 64.996 200.221 64.868C200.061 64.732 199.969 64.56 199.945 64.352L199.921 63.728C199.641 64.184 199.277 64.532 198.829 64.772C198.381 65.004 197.889 65.12 197.353 65.12C196.697 65.12 196.201 64.904 195.865 64.472C195.529 64.04 195.361 63.404 195.361 62.564ZM198.649 57.824L197.785 57.56L198.469 56.24H199.729L198.649 57.824ZM206.117 65.12C205.637 65.12 205.201 65.008 204.809 64.784C204.425 64.552 204.121 64.244 203.897 63.86V65H202.733V56.24H204.053V59.912C204.301 59.512 204.609 59.196 204.977 58.964C205.353 58.732 205.793 58.616 206.297 58.616C206.713 58.616 207.093 58.704 207.437 58.88C207.781 59.056 208.073 59.296 208.313 59.6C208.561 59.904 208.749 60.252 208.877 60.644C209.013 61.036 209.081 61.452 209.081 61.892C209.081 62.332 209.005 62.748 208.853 63.14C208.709 63.532 208.501 63.876 208.229 64.172C207.957 64.468 207.641 64.7 207.281 64.868C206.929 65.036 206.541 65.12 206.117 65.12ZM205.769 63.992C206.057 63.992 206.321 63.936 206.561 63.824C206.801 63.704 207.009 63.548 207.185 63.356C207.361 63.164 207.493 62.94 207.581 62.684C207.677 62.428 207.725 62.164 207.725 61.892C207.725 61.516 207.645 61.164 207.485 60.836C207.333 60.508 207.117 60.244 206.837 60.044C206.557 59.844 206.233 59.744 205.865 59.744C205.601 59.744 205.353 59.808 205.121 59.936C204.889 60.056 204.681 60.22 204.497 60.428C204.321 60.628 204.173 60.852 204.053 61.1V62.756C204.101 62.94 204.185 63.108 204.305 63.26C204.425 63.404 204.565 63.532 204.725 63.644C204.885 63.748 205.057 63.832 205.241 63.896C205.425 63.96 205.601 63.992 205.769 63.992ZM210.281 56.24H211.601V63.188C211.601 63.508 211.649 63.712 211.745 63.8C211.841 63.888 211.961 63.932 212.105 63.932C212.265 63.932 212.413 63.916 212.549 63.884C212.693 63.852 212.817 63.812 212.921 63.764L213.113 64.808C212.921 64.888 212.693 64.956 212.429 65.012C212.165 65.068 211.929 65.096 211.721 65.096C211.273 65.096 210.921 64.972 210.665 64.724C210.409 64.468 210.281 64.116 210.281 63.668V56.24ZM213.878 65V58.724H215.198V65H213.878ZM213.878 57.692V56.24H215.198V57.692H213.878ZM219.628 65.12C219.14 65.12 218.696 65.036 218.296 64.868C217.904 64.692 217.564 64.452 217.276 64.148C216.988 63.844 216.764 63.496 216.604 63.104C216.452 62.712 216.376 62.296 216.376 61.856C216.376 61.264 216.508 60.724 216.772 60.236C217.044 59.748 217.42 59.356 217.9 59.06C218.388 58.764 218.964 58.616 219.628 58.616C220.268 58.616 220.824 58.76 221.296 59.048C221.776 59.328 222.128 59.704 222.352 60.176L221.068 60.584C220.924 60.32 220.72 60.116 220.456 59.972C220.2 59.82 219.916 59.744 219.604 59.744C219.252 59.744 218.932 59.836 218.644 60.02C218.364 60.196 218.14 60.444 217.972 60.764C217.812 61.076 217.732 61.44 217.732 61.856C217.732 62.256 217.816 62.62 217.984 62.948C218.152 63.268 218.376 63.524 218.656 63.716C218.944 63.9 219.264 63.992 219.616 63.992C219.832 63.992 220.04 63.956 220.24 63.884C220.448 63.804 220.628 63.7 220.78 63.572C220.932 63.436 221.04 63.288 221.104 63.128L222.4 63.512C222.264 63.824 222.06 64.1 221.788 64.34C221.524 64.58 221.208 64.772 220.84 64.916C220.48 65.052 220.076 65.12 219.628 65.12ZM226.249 65.12C225.753 65.12 225.309 65.036 224.917 64.868C224.525 64.692 224.185 64.452 223.897 64.148C223.617 63.844 223.401 63.5 223.249 63.116C223.097 62.724 223.021 62.308 223.021 61.868C223.021 61.428 223.097 61.012 223.249 60.62C223.401 60.228 223.617 59.884 223.897 59.588C224.185 59.284 224.525 59.048 224.917 58.88C225.317 58.704 225.761 58.616 226.249 58.616C226.737 58.616 227.177 58.704 227.569 58.88C227.969 59.048 228.309 59.284 228.589 59.588C228.877 59.884 229.097 60.228 229.249 60.62C229.401 61.012 229.477 61.428 229.477 61.868C229.477 62.308 229.401 62.724 229.249 63.116C229.097 63.5 228.877 63.844 228.589 64.148C228.309 64.452 227.969 64.692 227.569 64.868C227.177 65.036 226.737 65.12 226.249 65.12ZM224.377 61.88C224.377 62.28 224.461 62.64 224.629 62.96C224.797 63.28 225.021 63.532 225.301 63.716C225.581 63.9 225.897 63.992 226.249 63.992C226.593 63.992 226.905 63.9 227.185 63.716C227.473 63.524 227.701 63.268 227.869 62.948C228.037 62.62 228.121 62.26 228.121 61.868C228.121 61.468 228.037 61.108 227.869 60.788C227.701 60.468 227.473 60.216 227.185 60.032C226.905 59.84 226.593 59.744 226.249 59.744C225.897 59.744 225.581 59.84 225.301 60.032C225.021 60.224 224.797 60.48 224.629 60.8C224.461 61.112 224.377 61.472 224.377 61.88ZM230.544 66.164L230.832 64.928H230.4V63.464H231.588V64.928L231.168 66.164H230.544ZM91.336 77.164C91.336 76.764 91.448 76.416 91.672 76.12C91.904 75.816 92.22 75.584 92.62 75.424C93.02 75.256 93.484 75.172 94.012 75.172C94.292 75.172 94.576 75.192 94.864 75.232C95.16 75.272 95.42 75.336 95.644 75.424V75.028C95.644 74.588 95.512 74.244 95.248 73.996C94.984 73.748 94.604 73.624 94.108 73.624C93.756 73.624 93.424 73.688 93.112 73.816C92.8 73.936 92.468 74.108 92.116 74.332L91.672 73.444C92.088 73.164 92.504 72.956 92.92 72.82C93.344 72.684 93.788 72.616 94.252 72.616C95.092 72.616 95.752 72.84 96.232 73.288C96.72 73.728 96.964 74.356 96.964 75.172V77.512C96.964 77.664 96.988 77.772 97.036 77.836C97.092 77.9 97.184 77.936 97.312 77.944V79C97.192 79.024 97.084 79.04 96.988 79.048C96.892 79.056 96.812 79.06 96.748 79.06C96.468 79.06 96.256 78.992 96.112 78.856C95.968 78.72 95.884 78.56 95.86 78.376L95.824 78.016C95.552 78.368 95.204 78.64 94.78 78.832C94.356 79.024 93.928 79.12 93.496 79.12C93.08 79.12 92.708 79.036 92.38 78.868C92.052 78.692 91.796 78.456 91.612 78.16C91.428 77.864 91.336 77.532 91.336 77.164ZM95.332 77.548C95.428 77.444 95.504 77.34 95.56 77.236C95.616 77.132 95.644 77.04 95.644 76.96V76.24C95.42 76.152 95.184 76.088 94.936 76.048C94.688 76 94.444 75.976 94.204 75.976C93.724 75.976 93.332 76.072 93.028 76.264C92.732 76.456 92.584 76.72 92.584 77.056C92.584 77.24 92.632 77.416 92.728 77.584C92.832 77.752 92.976 77.888 93.16 77.992C93.352 78.096 93.588 78.148 93.868 78.148C94.156 78.148 94.432 78.092 94.696 77.98C94.96 77.868 95.172 77.724 95.332 77.548ZM98.5774 70.24H99.8974V77.188C99.8974 77.508 99.9454 77.712 100.041 77.8C100.137 77.888 100.257 77.932 100.401 77.932C100.561 77.932 100.709 77.916 100.845 77.884C100.989 77.852 101.113 77.812 101.217 77.764L101.409 78.808C101.217 78.888 100.989 78.956 100.725 79.012C100.461 79.068 100.225 79.096 100.017 79.096C99.5694 79.096 99.2174 78.972 98.9614 78.724C98.7054 78.468 98.5774 78.116 98.5774 77.668V70.24ZM104.563 79.12C104.155 79.12 103.779 79.036 103.435 78.868C103.099 78.692 102.807 78.456 102.559 78.16C102.311 77.856 102.119 77.508 101.983 77.116C101.855 76.716 101.791 76.296 101.791 75.856C101.791 75.408 101.863 74.988 102.007 74.596C102.159 74.204 102.367 73.86 102.631 73.564C102.903 73.268 103.219 73.036 103.579 72.868C103.939 72.7 104.327 72.616 104.743 72.616C105.223 72.616 105.655 72.732 106.039 72.964C106.431 73.196 106.739 73.496 106.963 73.864V72.724H108.127V81.556H106.807V77.824C106.279 78.688 105.531 79.12 104.563 79.12ZM105.043 77.992C105.307 77.992 105.547 77.94 105.763 77.836C105.987 77.732 106.183 77.592 106.351 77.416C106.527 77.232 106.679 77.024 106.807 76.792V75.136C106.767 74.944 106.687 74.768 106.567 74.608C106.455 74.44 106.315 74.292 106.147 74.164C105.979 74.028 105.799 73.924 105.607 73.852C105.415 73.78 105.227 73.744 105.043 73.744C104.763 73.744 104.507 73.804 104.275 73.924C104.043 74.044 103.839 74.208 103.663 74.416C103.495 74.616 103.363 74.844 103.267 75.1C103.179 75.356 103.135 75.62 103.135 75.892C103.135 76.276 103.215 76.628 103.375 76.948C103.543 77.26 103.767 77.512 104.047 77.704C104.335 77.896 104.667 77.992 105.043 77.992ZM109.65 76.564V72.724H110.97V76.3C110.97 76.86 111.07 77.284 111.27 77.572C111.478 77.852 111.778 77.992 112.17 77.992C112.418 77.992 112.658 77.94 112.89 77.836C113.13 77.732 113.346 77.58 113.538 77.38C113.738 77.172 113.898 76.924 114.018 76.636V72.724H115.338V77.512C115.338 77.664 115.366 77.772 115.422 77.836C115.478 77.9 115.57 77.936 115.698 77.944V79C115.562 79.024 115.45 79.04 115.362 79.048C115.274 79.056 115.19 79.06 115.11 79.06C114.87 79.06 114.67 78.996 114.51 78.868C114.35 78.732 114.258 78.56 114.234 78.352L114.21 77.728C113.93 78.184 113.566 78.532 113.118 78.772C112.67 79.004 112.178 79.12 111.642 79.12C110.986 79.12 110.49 78.904 110.154 78.472C109.818 78.04 109.65 77.404 109.65 76.564ZM117.022 79V72.724H118.342V79H117.022ZM117.022 71.692V70.24H118.342V71.692H117.022ZM119.941 70.24H121.261V77.188C121.261 77.508 121.309 77.712 121.405 77.8C121.501 77.888 121.621 77.932 121.765 77.932C121.925 77.932 122.073 77.916 122.209 77.884C122.353 77.852 122.477 77.812 122.581 77.764L122.773 78.808C122.581 78.888 122.353 78.956 122.089 79.012C121.825 79.068 121.589 79.096 121.381 79.096C120.933 79.096 120.581 78.972 120.325 78.724C120.069 78.468 119.941 78.116 119.941 77.668V70.24ZM126.382 79.12C125.894 79.12 125.45 79.036 125.05 78.868C124.658 78.692 124.318 78.456 124.03 78.16C123.742 77.856 123.518 77.512 123.358 77.128C123.206 76.736 123.13 76.32 123.13 75.88C123.13 75.288 123.266 74.748 123.538 74.26C123.81 73.764 124.19 73.368 124.678 73.072C125.166 72.768 125.738 72.616 126.394 72.616C127.05 72.616 127.614 72.768 128.086 73.072C128.566 73.368 128.938 73.76 129.202 74.248C129.466 74.736 129.598 75.26 129.598 75.82C129.598 75.916 129.594 76.008 129.586 76.096C129.578 76.176 129.57 76.244 129.562 76.3H124.534C124.558 76.668 124.658 76.992 124.834 77.272C125.018 77.544 125.25 77.76 125.53 77.92C125.81 78.072 126.11 78.148 126.43 78.148C126.782 78.148 127.114 78.06 127.426 77.884C127.746 77.708 127.962 77.476 128.074 77.188L129.202 77.512C129.066 77.816 128.858 78.092 128.578 78.34C128.306 78.58 127.982 78.772 127.606 78.916C127.23 79.052 126.822 79.12 126.382 79.12ZM124.498 75.424H128.29C128.266 75.064 128.162 74.748 127.978 74.476C127.802 74.196 127.574 73.98 127.294 73.828C127.022 73.668 126.718 73.588 126.382 73.588C126.054 73.588 125.75 73.668 125.47 73.828C125.198 73.98 124.974 74.196 124.798 74.476C124.622 74.748 124.522 75.064 124.498 75.424ZM134.203 73.864C133.691 73.872 133.235 73.988 132.835 74.212C132.443 74.436 132.163 74.752 131.995 75.16V79H130.675V72.724H131.899V74.128C132.115 73.696 132.399 73.352 132.751 73.096C133.103 72.832 133.475 72.688 133.867 72.664C133.947 72.664 134.011 72.664 134.059 72.664C134.115 72.664 134.163 72.668 134.203 72.676V73.864ZM137.462 75.868C137.462 75.268 137.582 74.724 137.822 74.236C138.07 73.74 138.406 73.348 138.83 73.06C139.254 72.764 139.742 72.616 140.294 72.616C140.774 72.616 141.206 72.74 141.59 72.988C141.982 73.236 142.286 73.544 142.502 73.912V70.24H143.822V77.512C143.822 77.664 143.85 77.772 143.906 77.836C143.962 77.9 144.054 77.936 144.182 77.944V79C143.934 79.04 143.742 79.06 143.606 79.06C143.358 79.06 143.146 78.988 142.97 78.844C142.802 78.7 142.714 78.528 142.706 78.328L142.694 77.86C142.454 78.26 142.13 78.572 141.722 78.796C141.314 79.012 140.89 79.12 140.45 79.12C140.018 79.12 139.618 79.036 139.25 78.868C138.89 78.7 138.574 78.464 138.302 78.16C138.038 77.856 137.83 77.508 137.678 77.116C137.534 76.724 137.462 76.308 137.462 75.868ZM142.502 76.744V75.1C142.414 74.844 142.27 74.616 142.07 74.416C141.878 74.208 141.658 74.044 141.41 73.924C141.17 73.804 140.93 73.744 140.69 73.744C140.41 73.744 140.154 73.804 139.922 73.924C139.698 74.044 139.502 74.204 139.334 74.404C139.174 74.604 139.05 74.832 138.962 75.088C138.874 75.344 138.83 75.612 138.83 75.892C138.83 76.18 138.878 76.452 138.974 76.708C139.07 76.956 139.206 77.18 139.382 77.38C139.566 77.572 139.774 77.724 140.006 77.836C140.246 77.94 140.506 77.992 140.786 77.992C140.962 77.992 141.138 77.96 141.314 77.896C141.498 77.832 141.67 77.744 141.83 77.632C141.998 77.52 142.138 77.388 142.25 77.236C142.37 77.084 142.454 76.92 142.502 76.744ZM148.343 79.12C147.855 79.12 147.411 79.036 147.011 78.868C146.619 78.692 146.279 78.456 145.991 78.16C145.703 77.856 145.479 77.512 145.319 77.128C145.167 76.736 145.091 76.32 145.091 75.88C145.091 75.288 145.227 74.748 145.499 74.26C145.771 73.764 146.151 73.368 146.639 73.072C147.127 72.768 147.699 72.616 148.355 72.616C149.011 72.616 149.575 72.768 150.047 73.072C150.527 73.368 150.899 73.76 151.163 74.248C151.427 74.736 151.559 75.26 151.559 75.82C151.559 75.916 151.555 76.008 151.547 76.096C151.539 76.176 151.531 76.244 151.523 76.3H146.495C146.519 76.668 146.619 76.992 146.795 77.272C146.979 77.544 147.211 77.76 147.491 77.92C147.771 78.072 148.071 78.148 148.391 78.148C148.743 78.148 149.075 78.06 149.387 77.884C149.707 77.708 149.923 77.476 150.035 77.188L151.163 77.512C151.027 77.816 150.819 78.092 150.539 78.34C150.267 78.58 149.943 78.772 149.567 78.916C149.191 79.052 148.783 79.12 148.343 79.12ZM146.459 75.424H150.251C150.227 75.064 150.123 74.748 149.939 74.476C149.763 74.196 149.535 73.98 149.255 73.828C148.983 73.668 148.679 73.588 148.343 73.588C148.015 73.588 147.711 73.668 147.431 73.828C147.159 73.98 146.935 74.196 146.759 74.476C146.583 74.748 146.483 75.064 146.459 75.424ZM159.093 78.676C158.981 78.732 158.841 78.792 158.673 78.856C158.505 78.92 158.313 78.976 158.097 79.024C157.889 79.072 157.673 79.096 157.449 79.096C157.177 79.096 156.925 79.048 156.693 78.952C156.461 78.856 156.273 78.704 156.129 78.496C155.993 78.28 155.925 78.004 155.925 77.668V73.744H155.097V72.724H155.925V70.66H157.245V72.724H158.613V73.744H157.245V77.248C157.261 77.464 157.329 77.624 157.449 77.728C157.577 77.832 157.733 77.884 157.917 77.884C158.101 77.884 158.277 77.852 158.445 77.788C158.613 77.724 158.737 77.672 158.817 77.632L159.093 78.676ZM163.535 73.864C163.023 73.872 162.567 73.988 162.167 74.212C161.775 74.436 161.495 74.752 161.327 75.16V79H160.007V72.724H161.231V74.128C161.447 73.696 161.731 73.352 162.083 73.096C162.435 72.832 162.807 72.688 163.199 72.664C163.279 72.664 163.343 72.664 163.391 72.664C163.447 72.664 163.495 72.668 163.535 72.676V73.864ZM164.027 77.164C164.027 76.764 164.139 76.416 164.363 76.12C164.595 75.816 164.911 75.584 165.311 75.424C165.711 75.256 166.175 75.172 166.703 75.172C166.983 75.172 167.267 75.192 167.555 75.232C167.851 75.272 168.111 75.336 168.335 75.424V75.028C168.335 74.588 168.203 74.244 167.939 73.996C167.675 73.748 167.295 73.624 166.799 73.624C166.447 73.624 166.115 73.688 165.803 73.816C165.491 73.936 165.159 74.108 164.807 74.332L164.363 73.444C164.779 73.164 165.195 72.956 165.611 72.82C166.035 72.684 166.479 72.616 166.943 72.616C167.783 72.616 168.443 72.84 168.923 73.288C169.411 73.728 169.655 74.356 169.655 75.172V77.512C169.655 77.664 169.679 77.772 169.727 77.836C169.783 77.9 169.875 77.936 170.003 77.944V79C169.883 79.024 169.775 79.04 169.679 79.048C169.583 79.056 169.503 79.06 169.439 79.06C169.159 79.06 168.947 78.992 168.803 78.856C168.659 78.72 168.575 78.56 168.551 78.376L168.515 78.016C168.243 78.368 167.895 78.64 167.471 78.832C167.047 79.024 166.619 79.12 166.187 79.12C165.771 79.12 165.399 79.036 165.071 78.868C164.743 78.692 164.487 78.456 164.303 78.16C164.119 77.864 164.027 77.532 164.027 77.164ZM168.023 77.548C168.119 77.444 168.195 77.34 168.251 77.236C168.307 77.132 168.335 77.04 168.335 76.96V76.24C168.111 76.152 167.875 76.088 167.627 76.048C167.379 76 167.135 75.976 166.895 75.976C166.415 75.976 166.023 76.072 165.719 76.264C165.423 76.456 165.275 76.72 165.275 77.056C165.275 77.24 165.323 77.416 165.419 77.584C165.523 77.752 165.667 77.888 165.851 77.992C166.043 78.096 166.279 78.148 166.559 78.148C166.847 78.148 167.123 78.092 167.387 77.98C167.651 77.868 167.863 77.724 168.023 77.548ZM176.885 79H175.565V75.484C175.565 74.9 175.469 74.472 175.277 74.2C175.093 73.928 174.817 73.792 174.449 73.792C174.193 73.792 173.937 73.856 173.681 73.984C173.433 74.112 173.209 74.288 173.009 74.512C172.809 74.728 172.665 74.98 172.577 75.268V79H171.257V72.724H172.457V73.984C172.617 73.704 172.825 73.464 173.081 73.264C173.345 73.056 173.641 72.896 173.969 72.784C174.297 72.672 174.645 72.616 175.013 72.616C175.389 72.616 175.697 72.684 175.937 72.82C176.185 72.956 176.377 73.144 176.513 73.384C176.657 73.616 176.753 73.888 176.801 74.2C176.857 74.504 176.885 74.828 176.885 75.172V79ZM180.649 79.12C180.121 79.12 179.621 79.036 179.149 78.868C178.677 78.692 178.273 78.432 177.937 78.088L178.429 77.2C178.789 77.52 179.149 77.752 179.509 77.896C179.877 78.04 180.241 78.112 180.601 78.112C180.969 78.112 181.269 78.044 181.501 77.908C181.733 77.764 181.849 77.556 181.849 77.284C181.849 77.084 181.789 76.936 181.669 76.84C181.549 76.744 181.373 76.66 181.141 76.588C180.917 76.516 180.645 76.436 180.325 76.348C179.877 76.212 179.501 76.072 179.197 75.928C178.893 75.776 178.665 75.592 178.513 75.376C178.361 75.16 178.285 74.884 178.285 74.548C178.285 74.14 178.389 73.792 178.597 73.504C178.805 73.216 179.093 72.996 179.461 72.844C179.837 72.692 180.269 72.616 180.757 72.616C181.213 72.616 181.633 72.688 182.017 72.832C182.409 72.968 182.753 73.184 183.049 73.48L182.485 74.356C182.205 74.1 181.917 73.912 181.621 73.792C181.333 73.672 181.021 73.612 180.685 73.612C180.493 73.612 180.309 73.636 180.133 73.684C179.957 73.724 179.809 73.804 179.689 73.924C179.577 74.036 179.521 74.196 179.521 74.404C179.521 74.572 179.569 74.708 179.665 74.812C179.761 74.916 179.905 75.004 180.097 75.076C180.289 75.148 180.525 75.228 180.805 75.316C181.293 75.46 181.709 75.604 182.053 75.748C182.397 75.884 182.661 76.064 182.845 76.288C183.037 76.504 183.133 76.804 183.133 77.188C183.133 77.796 182.905 78.272 182.449 78.616C182.001 78.952 181.401 79.12 180.649 79.12ZM187.876 79.12C187.372 79.12 186.928 79 186.544 78.76C186.16 78.52 185.856 78.208 185.632 77.824V81.556H184.312V72.724H185.476V73.852C185.716 73.476 186.028 73.176 186.412 72.952C186.796 72.728 187.224 72.616 187.696 72.616C188.128 72.616 188.524 72.704 188.884 72.88C189.244 73.048 189.556 73.284 189.82 73.588C190.084 73.892 190.288 74.24 190.432 74.632C190.584 75.016 190.66 75.424 190.66 75.856C190.66 76.456 190.54 77.004 190.3 77.5C190.068 77.996 189.74 78.392 189.316 78.688C188.9 78.976 188.42 79.12 187.876 79.12ZM187.444 77.992C187.724 77.992 187.976 77.932 188.2 77.812C188.432 77.692 188.628 77.532 188.788 77.332C188.956 77.132 189.084 76.904 189.172 76.648C189.26 76.392 189.304 76.128 189.304 75.856C189.304 75.568 189.256 75.296 189.16 75.04C189.064 74.784 188.924 74.56 188.74 74.368C188.564 74.176 188.356 74.024 188.116 73.912C187.884 73.8 187.628 73.744 187.348 73.744C187.18 73.744 187.004 73.776 186.82 73.84C186.636 73.904 186.464 73.992 186.304 74.104C186.144 74.216 186.004 74.348 185.884 74.5C185.764 74.652 185.68 74.812 185.632 74.98V76.624C185.744 76.88 185.892 77.112 186.076 77.32C186.26 77.52 186.472 77.684 186.712 77.812C186.952 77.932 187.196 77.992 187.444 77.992ZM194.667 79.12C194.171 79.12 193.727 79.036 193.335 78.868C192.943 78.692 192.603 78.452 192.315 78.148C192.035 77.844 191.819 77.5 191.667 77.116C191.515 76.724 191.439 76.308 191.439 75.868C191.439 75.428 191.515 75.012 191.667 74.62C191.819 74.228 192.035 73.884 192.315 73.588C192.603 73.284 192.943 73.048 193.335 72.88C193.735 72.704 194.179 72.616 194.667 72.616C195.155 72.616 195.595 72.704 195.987 72.88C196.387 73.048 196.727 73.284 197.007 73.588C197.295 73.884 197.515 74.228 197.667 74.62C197.819 75.012 197.895 75.428 197.895 75.868C197.895 76.308 197.819 76.724 197.667 77.116C197.515 77.5 197.295 77.844 197.007 78.148C196.727 78.452 196.387 78.692 195.987 78.868C195.595 79.036 195.155 79.12 194.667 79.12ZM192.795 75.88C192.795 76.28 192.879 76.64 193.047 76.96C193.215 77.28 193.439 77.532 193.719 77.716C193.999 77.9 194.315 77.992 194.667 77.992C195.011 77.992 195.323 77.9 195.603 77.716C195.891 77.524 196.119 77.268 196.287 76.948C196.455 76.62 196.539 76.26 196.539 75.868C196.539 75.468 196.455 75.108 196.287 74.788C196.119 74.468 195.891 74.216 195.603 74.032C195.323 73.84 195.011 73.744 194.667 73.744C194.315 73.744 193.999 73.84 193.719 74.032C193.439 74.224 193.215 74.48 193.047 74.8C192.879 75.112 192.795 75.472 192.795 75.88ZM202.593 73.864C202.081 73.872 201.625 73.988 201.225 74.212C200.833 74.436 200.553 74.752 200.385 75.16V79H199.065V72.724H200.289V74.128C200.505 73.696 200.789 73.352 201.141 73.096C201.493 72.832 201.865 72.688 202.257 72.664C202.337 72.664 202.401 72.664 202.449 72.664C202.505 72.664 202.553 72.668 202.593 72.676V73.864ZM207.046 78.676C206.934 78.732 206.794 78.792 206.626 78.856C206.458 78.92 206.266 78.976 206.05 79.024C205.842 79.072 205.626 79.096 205.402 79.096C205.13 79.096 204.878 79.048 204.646 78.952C204.414 78.856 204.226 78.704 204.082 78.496C203.946 78.28 203.878 78.004 203.878 77.668V73.744H203.05V72.724H203.878V70.66H205.198V72.724H206.566V73.744H205.198V77.248C205.214 77.464 205.282 77.624 205.402 77.728C205.53 77.832 205.686 77.884 205.87 77.884C206.054 77.884 206.23 77.852 206.398 77.788C206.566 77.724 206.69 77.672 206.77 77.632L207.046 78.676ZM210.722 79.12C210.234 79.12 209.79 79.036 209.39 78.868C208.998 78.692 208.658 78.456 208.37 78.16C208.082 77.856 207.858 77.512 207.698 77.128C207.546 76.736 207.47 76.32 207.47 75.88C207.47 75.288 207.606 74.748 207.878 74.26C208.15 73.764 208.53 73.368 209.018 73.072C209.506 72.768 210.078 72.616 210.734 72.616C211.39 72.616 211.954 72.768 212.426 73.072C212.906 73.368 213.278 73.76 213.542 74.248C213.806 74.736 213.938 75.26 213.938 75.82C213.938 75.916 213.934 76.008 213.926 76.096C213.918 76.176 213.91 76.244 213.902 76.3H208.874C208.898 76.668 208.998 76.992 209.174 77.272C209.358 77.544 209.59 77.76 209.87 77.92C210.15 78.072 210.45 78.148 210.77 78.148C211.122 78.148 211.454 78.06 211.766 77.884C212.086 77.708 212.302 77.476 212.414 77.188L213.542 77.512C213.406 77.816 213.198 78.092 212.918 78.34C212.646 78.58 212.322 78.772 211.946 78.916C211.57 79.052 211.162 79.12 210.722 79.12ZM208.838 75.424H212.63C212.606 75.064 212.502 74.748 212.318 74.476C212.142 74.196 211.914 73.98 211.634 73.828C211.362 73.668 211.058 73.588 210.722 73.588C210.394 73.588 210.09 73.668 209.81 73.828C209.538 73.98 209.314 74.196 209.138 74.476C208.962 74.748 208.862 75.064 208.838 75.424ZM215.099 80.164L215.387 78.928H214.955V77.464H216.143V78.928L215.723 80.164H215.099ZM223.472 79.12C222.984 79.12 222.54 79.036 222.14 78.868C221.748 78.692 221.408 78.456 221.12 78.16C220.832 77.856 220.608 77.512 220.448 77.128C220.296 76.736 220.22 76.32 220.22 75.88C220.22 75.288 220.356 74.748 220.628 74.26C220.9 73.764 221.28 73.368 221.768 73.072C222.256 72.768 222.828 72.616 223.484 72.616C224.14 72.616 224.704 72.768 225.176 73.072C225.656 73.368 226.028 73.76 226.292 74.248C226.556 74.736 226.688 75.26 226.688 75.82C226.688 75.916 226.684 76.008 226.676 76.096C226.668 76.176 226.66 76.244 226.652 76.3H221.624C221.648 76.668 221.748 76.992 221.924 77.272C222.108 77.544 222.34 77.76 222.62 77.92C222.9 78.072 223.2 78.148 223.52 78.148C223.872 78.148 224.204 78.06 224.516 77.884C224.836 77.708 225.052 77.476 225.164 77.188L226.292 77.512C226.156 77.816 225.948 78.092 225.668 78.34C225.396 78.58 225.072 78.772 224.696 78.916C224.32 79.052 223.912 79.12 223.472 79.12ZM221.588 75.424H225.38C225.356 75.064 225.252 74.748 225.068 74.476C224.892 74.196 224.664 73.98 224.384 73.828C224.112 73.668 223.808 73.588 223.472 73.588C223.144 73.588 222.84 73.668 222.56 73.828C222.288 73.98 222.064 74.196 221.888 74.476C221.712 74.748 221.612 75.064 221.588 75.424ZM231.198 78.676C231.086 78.732 230.946 78.792 230.778 78.856C230.61 78.92 230.418 78.976 230.202 79.024C229.994 79.072 229.778 79.096 229.554 79.096C229.282 79.096 229.03 79.048 228.798 78.952C228.566 78.856 228.378 78.704 228.234 78.496C228.098 78.28 228.03 78.004 228.03 77.668V73.744H227.202V72.724H228.03V70.66H229.35V72.724H230.718V73.744H229.35V77.248C229.366 77.464 229.434 77.624 229.554 77.728C229.682 77.832 229.838 77.884 230.022 77.884C230.206 77.884 230.382 77.852 230.55 77.788C230.718 77.724 230.842 77.672 230.922 77.632L231.198 78.676ZM234.874 79.12C234.386 79.12 233.942 79.036 233.542 78.868C233.15 78.692 232.81 78.452 232.522 78.148C232.234 77.844 232.01 77.496 231.85 77.104C231.698 76.712 231.622 76.296 231.622 75.856C231.622 75.264 231.754 74.724 232.018 74.236C232.29 73.748 232.666 73.356 233.146 73.06C233.634 72.764 234.21 72.616 234.874 72.616C235.514 72.616 236.07 72.76 236.542 73.048C237.022 73.328 237.374 73.704 237.598 74.176L236.314 74.584C236.17 74.32 235.966 74.116 235.702 73.972C235.446 73.82 235.162 73.744 234.85 73.744C234.498 73.744 234.178 73.836 233.89 74.02C233.61 74.196 233.386 74.444 233.218 74.764C233.058 75.076 232.978 75.44 232.978 75.856C232.978 76.256 233.062 76.62 233.23 76.948C233.398 77.268 233.622 77.524 233.902 77.716C234.19 77.9 234.51 77.992 234.862 77.992C235.078 77.992 235.286 77.956 235.486 77.884C235.694 77.804 235.874 77.7 236.026 77.572C236.178 77.436 236.286 77.288 236.35 77.128L237.646 77.512C237.51 77.824 237.306 78.1 237.034 78.34C236.77 78.58 236.454 78.772 236.086 78.916C235.726 79.052 235.322 79.12 234.874 79.12ZM238.673 79V77.464H239.765V79H238.673Z" fill="black" fill-opacity="0.8"/>
<rect x="91" y="43" width="40" height="4" rx="2" fill="#70FA86"/>
<defs>
<filter id="filter0_d_471_2160" x="0" y="0" width="275" height="102" filterUnits="userSpaceOnUse" color-interpolation-filters="sRGB">
<feFlood flood-opacity="0" result="BackgroundImageFix"/>
<feColorMatrix in="SourceAlpha" type="matrix" values="0 0 0 0 0 0 0 0 0 0 0 0 0 0 0 0 0 0 127 0" result="hardAlpha"/>
<feOffset dy="2"/>
<feGaussianBlur stdDeviation="3"/>
<feComposite in2="hardAlpha" operator="out"/>
<feColorMatrix type="matrix" values="0 0 0 0 0 0 0 0 0 0 0 0 0 0 0 0 0 0 0.05 0"/>
<feBlend mode="normal" in2="BackgroundImageFix" result="effect1_dropShadow_471_2160"/>
<feBlend mode="normal" in="SourceGraphic" in2="effect1_dropShadow_471_2160" result="shape"/>
</filter>
</defs>
</svg>
